<?xml version="1.0" encoding="utf-8"?>
<!-- Generator: Adobe Illustrator 28.0.0, SVG Export Plug-In . SVG Version: 6.00 Build 0)  -->
<svg version="1.1" id="Слой_1" xmlns="http://www.w3.org/2000/svg" xmlns:xlink="http://www.w3.org/1999/xlink" x="0px" y="0px"
	 viewBox="0 0 214.77 242.7" style="enable-background:new 0 0 214.77 242.7;" xml:space="preserve">
<style type="text/css">
	.st0{fill:#8BB72D;}
	.st1{fill:#602683;}
	.st2{fill:#602682;}
</style>
<g>
	<g>
		<g>
			<g>
				<path class="st0" d="M110.22,152.61c0.47,0,1.91-0.02,3.48-0.12c-1.28,0.07-1.93,0.11-3.89,0.13h0.01
					C109.93,152.61,110.09,152.61,110.22,152.61"/>
				<path class="st0" d="M124.32,150.84c0.79-0.2,1.57-0.41,2.35-0.63c0.44-0.13,0.88-0.26,1.31-0.4c0.07-0.02,0.15-0.05,0.22-0.07
					c-2.79,0.82-3.84,1.13-6.35,1.66c0.08-0.01,0.15-0.03,0.23-0.04C122.82,151.2,123.57,151.03,124.32,150.84"/>
				<path class="st0" d="M110.14,152.61c0.1,0,0.45,0,0.53-0.01c-0.42,0.01-0.58,0.01-0.95,0.01h0.02
					C109.86,152.61,110.02,152.61,110.14,152.61"/>
				<path class="st0" d="M113.64,152.48c1.65-0.11,2.7-0.26,2.71-0.26c-2.05,0.13-4.09,0.37-6.15,0.39c0.16,0,0.32,0,0.48,0
					C111.05,152.6,112.19,152.58,113.64,152.48"/>
				<path class="st0" d="M119.35,151.84c1.6-0.26,2.72-0.51,2.99-0.58c-1.04,0.06-2.03,0.39-3.05,0.56
					c-1.34,0.22-2.07,0.31-3.3,0.46c0.08-0.01,0.13-0.01,0.46-0.05C116.81,152.2,117.92,152.08,119.35,151.84"/>
				<path class="st0" d="M137.98,145.68c0.72-0.37,1.43-0.76,2.14-1.16c0.32-0.18,0.64-0.37,0.96-0.56
					c-1.45,0.85-2.93,1.65-4.4,2.37C137.12,146.12,137.55,145.91,137.98,145.68"/>
				<path class="st0" d="M127.77,149.74c0.84-0.27,2.17-0.75,2.5-0.95c-0.14-0.04-5.71,1.83-5.76,1.85
					c0.05,0.01,0.07,0.01,0.67-0.14C125.77,150.35,126.69,150.1,127.77,149.74"/>
				<path class="st0" d="M133.59,147.72c1.28-0.54,2.56-1.16,2.72-1.28c-0.2,0.05-5.77,2.44-5.82,2.47
					c0.07-0.01,0.12-0.02,0.37-0.11C131.27,148.65,132.24,148.3,133.59,147.72"/>
				<path class="st0" d="M110.21,152.61c1.68-0.03,2.6-0.13,2.61-0.13c-3.05,0.14-3.05,0.14-3.23,0.14h0.05
					C109.82,152.61,110.04,152.61,110.21,152.61"/>
				<path class="st0" d="M115.84,152.21c1.05-0.14,2.02-0.32,2.35-0.41c-0.09,0-0.1,0-0.97,0.13c-1.62,0.26-2.72,0.42-4.26,0.55
					c0.04,0,0.05,0,0.32-0.02C113.69,152.44,114.66,152.36,115.84,152.21"/>
				<path class="st0" d="M121.84,151.22c1.1-0.26,2.01-0.53,2.25-0.64c-0.17-0.04-5.47,1.24-5.51,1.25c0.06,0,0.1,0,0.95-0.14
					C120.85,151.44,121.05,151.4,121.84,151.22"/>
				<path class="st0" d="M141.24,143.62c0.52-0.32,1.77-1.11,2.15-1.54c0-0.01-0.01-0.02-0.01-0.03c-0.71,0.18-4.92,2.88-5.13,3.13
					c0.08,0.01,0.5-0.19,0.51-0.19c-0.01,0-0.02,0.01-0.03,0.02c0,0,0.01,0,0.02,0C139.09,144.83,140.01,144.38,141.24,143.62"/>
				<path class="st0" d="M146.65,140.26c0.96-0.72,1.95-1.51,2.12-1.7c-0.14,0-4.89,3.58-4.92,3.62c0.04-0.01,0.08-0.01,0.79-0.49
					C145.54,141.07,145.88,140.84,146.65,140.26"/>
				<path class="st0" d="M109.62,152.61c0.06,0,0.15,0,0.21,0c-0.15,0-0.3,0-0.46,0.01h0.03
					C109.46,152.61,109.55,152.61,109.62,152.61"/>
				<path class="st0" d="M112.51,152.43c0.22-0.03,0.97-0.12,1.27-0.23c-0.1,0-0.15,0-0.75,0.1c-1.36,0.21-2.36,0.3-3.57,0.31h0.04
					c0.18,0,0.61,0,1.1-0.02C111.35,152.55,112.08,152.48,112.51,152.43"/>
				<path class="st0" d="M117.41,151.69c0.51-0.13,1.29-0.35,1.34-0.45c-0.24-0.04-4.12,0.94-4.15,0.95c0.04,0,0.08,0.01,0.58-0.06
					C115.73,152.05,116.56,151.9,117.41,151.69"/>
				<path class="st0" d="M123.09,150.41c0.06-0.02,1.39-0.49,1.43-0.67c-0.39-0.08-4.57,1.47-4.6,1.49
					c0.02,0.01,0.06,0.03,0.71-0.11C121.02,151.02,122.05,150.77,123.09,150.41"/>
				<path class="st0" d="M128.99,148.7c1.05-0.44,1.7-0.8,1.83-0.99c-0.32-0.18-4.75,1.82-4.96,2.02c0.07,0.03,0.46-0.08,0.75-0.17
					C126.91,149.47,127.81,149.2,128.99,148.7"/>
				<path class="st0" d="M135.19,146.44c0.6-0.31,1.99-1.05,2.04-1.31c-0.51-0.06-4.88,2.29-5.15,2.58c0,0.01,0.01,0.02,0.02,0.02
					c0.04,0,0.12-0.01,0.41-0.12c-0.01,0-0.02,0.01-0.02,0.01c0.03-0.01,0.03-0.01,0.1-0.04C133,147.43,133.98,147.06,135.19,146.44
					"/>
				<path class="st0" d="M155.34,132.45c0.56-0.6,1.1-1.21,1.63-1.82c0.53-0.62,1.05-1.25,1.55-1.88c0.2-0.25,0.4-0.5,0.59-0.75
					c0.01-0.02,0.04-0.05,0.05-0.07l-3.93,4.65c0.03-0.03,0.03-0.03,0.1-0.1C155.33,132.46,155.34,132.46,155.34,132.45"/>
				<path class="st0" d="M153.11,134.48c0.26-0.26,1.55-1.58,1.71-2.01c-0.45-0.12-4.19,3.79-4.27,4.14c0.06,0,0.14,0,0.61-0.37
					C151.76,135.76,152.42,135.17,153.11,134.48"/>
				<path class="st0" d="M109.53,152.6c0.41-0.02,0.84-0.08,0.9-0.14c-0.04-0.01-0.11,0-0.39,0.05c-0.41,0.08-0.54,0.09-0.87,0.1
					h0.07C109.33,152.61,109.44,152.61,109.53,152.6"/>
				<path class="st0" d="M147.71,138.4c1.39-1.2,1.7-1.78,1.48-1.78c-0.43,0.01-4.51,3.09-4.31,3.64c0.05,0.01,0.16,0.02,0.44-0.15
					c0,0.01-0.01,0.01-0.02,0.02c0.03-0.01,0.03-0.01,0.14-0.07C145.78,139.86,146.59,139.37,147.71,138.4"/>
				<path class="st0" d="M112.75,152.14c0.58-0.17,0.73-0.28,0.77-0.33c-0.16-0.15-2.37,0.63-2.39,0.64c0.03,0,0.04,0,0.19-0.01
					c0,0-0.01,0-0.01,0c0.01,0,0.02,0,0.11-0.01C111.64,152.39,112.16,152.31,112.75,152.14"/>
				<path class="st0" d="M116.9,151.19c0.54-0.21,1.08-0.51,1.05-0.63c-0.37-0.16-2.73,0.86-3.1,1.16c0.1,0.01,0.15,0.02,0.6-0.08
					C115.67,151.59,116.37,151.4,116.9,151.19"/>
				<path class="st0" d="M122.3,149.62c1.06-0.52,1.14-0.73,1.17-0.82c-0.38-0.33-3.53,1.25-3.66,1.62
					c0.08,0.04,0.15,0.03,0.61-0.09c0,0-0.01,0.01-0.02,0.01c0.01,0,0.02,0,0.03,0C120.75,150.25,121.5,150.01,122.3,149.62"/>
				<path class="st0" d="M128.37,147.58c0.54-0.31,1.39-0.89,1.34-1.11c-0.46-0.26-3.7,1.43-4.13,2.15
					c0.18,0.03,0.25,0.04,0.87-0.16C126.79,148.33,127.71,147.95,128.37,147.58"/>
				<path class="st0" d="M134.88,145.02c0.57-0.37,1.46-1.06,1.43-1.32c-0.44-0.3-3.9,1.75-4.35,2.59c0.19,0.04,0.26,0.05,0.91-0.21
					C133.23,145.93,134.19,145.47,134.88,145.02"/>
				<path class="st0" d="M141.34,142.04c0.18-0.14,1.77-1.34,1.58-1.67c-0.64-0.12-4.18,2.37-4.45,3.13
					c0.14,0.03,0.22,0.04,0.47-0.07c-0.01,0-0.02,0.01-0.02,0.02c0.03-0.01,0.04-0.01,0.79-0.37
					C140.25,142.73,140.83,142.43,141.34,142.04"/>
				<path class="st0" d="M166.28,116.16c-0.72,1.54-1.46,2.95-1.67,3.34c0.17-0.31,0.33-0.62,0.49-0.94
					c0.33-0.65,0.76-1.53,1.08-2.18C166.21,116.3,166.25,116.23,166.28,116.16"/>
				<path class="st0" d="M108.85,152.61c-0.05,0-0.09-0.01-0.14-0.01c0,0,0,0,0,0c0.04,0.01,0.11,0.01,0.15,0.01h0.05
					C108.89,152.61,108.86,152.61,108.85,152.61"/>
				<path class="st0" d="M162.55,122.88c0.48-0.77,1.24-2.11,1.24-2.4c-0.35-0.04-3.23,4.51-3.11,4.92c0.03,0,0.07,0,0.23-0.2
					c0,0.01-0.01,0.02-0.02,0.03c0.03-0.03,0.03-0.03,0.13-0.15C161.25,124.8,161.72,124.22,162.55,122.88"/>
				<path class="st0" d="M109.47,152.41c0.12-0.14,0-0.27-0.17-0.26c-0.23,0.01-0.47,0.23-0.3,0.4c0.02,0.02,0.05,0.04,0.17,0.01
					C109.23,152.56,109.39,152.51,109.47,152.41"/>
				<path class="st0" d="M158.35,127.54c0.11-0.16,1.09-1.53,0.97-1.97c-0.68-0.25-3.52,3.77-3.43,4.37
					c0.11,0.04,0.11,0.04,0.4-0.13c0,0.01-0.01,0.02-0.02,0.03c0.03-0.01,0.03-0.01,0.19-0.15
					C156.77,129.41,157.42,128.83,158.35,127.54"/>
				<path class="st0" d="M111.61,151.67c0.22-0.19,0.36-0.46,0.07-0.49c-0.39-0.03-1.39,0.5-1.2,0.92c0.1,0.02,0.15,0.02,0.29-0.02
					c0,0,0,0,0,0.01c0.01,0,0.01,0,0.08-0.02C110.97,152.03,111.33,151.91,111.61,151.67"/>
				<path class="st0" d="M115.25,150.35c0.25-0.21,0.63-0.68,0.15-0.69c-0.85-0.02-2.2,1.12-1.9,1.38c0.1,0.08,0.4-0.01,0.58-0.06
					c0,0,0,0-0.01,0.01c0.01,0,0.02,0,0.02,0C114.31,150.91,114.85,150.69,115.25,150.35"/>
				<path class="st0" d="M146.36,136.25c0.38-0.42,1.32-1.62,0.72-1.66c-0.38-0.02-1.47,0.61-2.43,1.55
					c-0.95,0.92-1.4,1.86-1.24,2.01c0.15,0.14,0.63-0.1,0.88-0.24c-0.01,0.01-0.01,0.02-0.02,0.02c0.01,0,0.03,0,0.04-0.01
					C144.65,137.72,145.54,137.15,146.36,136.25"/>
				<path class="st0" d="M152.77,132.11c0.32-0.39,1.05-1.33,1-1.83c-0.51-0.38-3.33,2.07-3.8,3.88c0.17,0.09,0.26,0.14,0.62-0.1
					c0,0.01-0.01,0.02-0.02,0.02c0.03,0,0.03,0,0.2-0.12C151.09,133.75,151.84,133.23,152.77,132.11"/>
				<path class="st0" d="M120.07,148.56c0.82-0.68,0.55-0.92,0.29-0.94c-0.94-0.05-2.72,1.42-2.46,1.81
					c0.09,0.14,0.47,0.01,0.59-0.04c0,0-0.01,0.01-0.01,0.01c0.01,0,0.02,0,0.03,0C118.81,149.3,119.51,149.03,120.07,148.56"/>
				<path class="st0" d="M126.02,146.17c0.65-0.57,0.86-1.06,0.47-1.12c-0.94-0.16-3.27,1.75-3.04,2.23
					c0.05,0.1,0.27,0.15,1.06-0.16C124.72,147.02,125.38,146.74,126.02,146.17"/>
				<path class="st0" d="M132.58,143.34c0.78-0.72,1.01-1.33,0.49-1.32c-1.26,0.02-3.71,2.26-3.28,2.68
					c0.07,0.06,0.3,0.11,1.12-0.24C131.14,144.35,131.85,144.02,132.58,143.34"/>
				<path class="st0" d="M139.43,140.09c1.08-1.07,0.96-1.5,0.63-1.53c-0.26-0.02-1.11,0.23-2.14,1.13
					c-0.89,0.78-1.54,1.71-1.36,1.95c0.12,0.16,0.55-0.02,0.73-0.11c0,0-0.01,0.01-0.01,0.02c0.01,0,0.03,0,0.04-0.01
					C137.7,141.35,138.61,140.9,139.43,140.09"/>
				<path class="st0" d="M108.34,152.6c-0.29-0.02-0.56-0.07-0.81-0.11c-0.33-0.06-0.4-0.06-0.46-0.06c0,0,0,0.01,0,0.01
					c0,0,0.43,0.16,1.58,0.17h0.07C108.61,152.61,108.46,152.6,108.34,152.6"/>
				<path class="st0" d="M168.97,109.36c0.29-0.89,0.65-2.05,0.69-2.49c-0.01-0.01-0.01-0.01-0.02-0.02
					c-0.43,0.62-1.71,4.58-1.85,5.43c0.01,0,0.02,0.01,0.03,0.02c0.04-0.02,0.04-0.02,0.15-0.24c0,0.01-0.01,0.02-0.01,0.03
					c0-0.01,0.01-0.02,0.01-0.03C168.1,111.76,168.44,110.97,168.97,109.36"/>
				<path class="st0" d="M166.07,115.03c0.36-0.85,1.02-2.79,0.51-2.54c-0.48,0.24-2.21,3.31-2.26,5.03
					c0.16,0.08,0.22,0.11,0.62-0.41C165.18,116.76,165.7,115.9,166.07,115.03"/>
				<path class="st0" d="M107.61,152.1c-0.62-0.48-1.06-0.44-1.05-0.28c0.02,0.29,1.2,0.64,1.29,0.58c0,0,0-0.01,0.01-0.01
					c0,0,0.01,0,0.01,0c0-0.01,0-0.01,0-0.02C107.85,152.32,107.83,152.27,107.61,152.1"/>
				<path class="st0" d="M108.81,151.04c-0.11-0.58-0.89-0.8-1.22-0.35c-0.3,0.42,0.36,0.99,0.78,0.94
					c0.09-0.01,0.15-0.04,0.21-0.08c0,0,0.01,0.01,0.02,0C108.68,151.49,108.86,151.32,108.81,151.04"/>
				<path class="st0" d="M161.76,120.04c0.37-0.76,0.94-2.33,0.24-2.09c-1.15,0.4-3.23,4.28-2.47,4.62
					c0.18,0.08,0.49-0.18,0.69-0.35c0,0.01-0.01,0.02-0.01,0.03c0.01,0,0.02-0.01,0.03-0.01
					C160.49,121.96,161.18,121.23,161.76,120.04"/>
				<path class="st0" d="M156.04,125.1c0.69-1.22,0.77-2.17,0.16-2.02c-1.64,0.39-3.44,4.01-2.71,4.25
					c0.33,0.11,0.73-0.18,1.08-0.43C154.8,126.69,155.43,126.18,156.04,125.1"/>
				<path class="st0" d="M111.68,149.54c0.15-0.46-0.17-1.22-1.08-0.75c-0.22,0.12-0.53,0.28-0.58,0.78
					c-0.01,0.17,0.03,0.33,0.13,0.49c0.07,0.11,0.09,0.13,0.31,0.19c0.19,0.05,0.29,0.02,0.42-0.03c0,0,0,0.01,0,0.01
					c0.01,0,0.02,0,0.13-0.05C111.35,150.01,111.58,149.83,111.68,149.54"/>
				<path class="st0" d="M116.04,147.31c0.31-0.56,0.06-1.1-0.69-0.93c-1.06,0.24-1.86,1.45-1.27,1.91c0.3,0.22,0.94-0.06,1.02-0.1
					C115.67,147.89,115.94,147.48,116.04,147.31"/>
				<path class="st0" d="M149.45,129.73c0.58-0.9,0.75-1.83,0.06-1.77c-1.32,0.11-3.63,3.08-2.93,3.78
					c0.28,0.28,1.12-0.23,1.22-0.29C148.68,130.86,149.25,130.05,149.45,129.73"/>
				<path class="st0" d="M121.46,144.81c0.41-0.65,0.32-1.32-0.42-1.23c-1.05,0.13-2.48,1.69-1.81,2.28
					c0.2,0.17,0.58,0.13,1.16-0.13C120.58,145.62,121.1,145.37,121.46,144.81"/>
				<path class="st0" d="M128.12,141.47c0.34-0.54,0.4-1.27-0.54-1.08c-0.77,0.15-2.47,1.16-2.3,2.46c0.28,0.2,0.48,0.35,1.18,0.01
					c0,0.01,0.01,0.01,0.01,0.02c0.01,0,0.03-0.01,0.05-0.01C127.51,142.3,127.95,141.75,128.12,141.47"/>
				<path class="st0" d="M135.15,137.92c0.39-0.62,0.51-1.43-0.45-1.23c-0.8,0.17-2.64,1.32-2.59,2.79c0.27,0.23,0.47,0.4,1.23,0.01
					c0,0,0,0.01,0.01,0.02c0.01,0,0.03-0.01,0.04-0.01C134.46,138.87,134.95,138.24,135.15,137.92"/>
				<path class="st0" d="M142.23,134.2c0.64-0.91,0.8-1.82,0.03-1.72c-1.15,0.15-3.17,2.03-2.92,3.31c0.43,0.22,0.47,0.24,0.98,0.02
					c0,0.01-0.01,0.02-0.01,0.02c0.03,0,0.04,0,0.23-0.1C141.41,135.22,141.82,134.78,142.23,134.2"/>
				<path class="st0" d="M108.21,152.61c-0.3,0-0.69-0.01-0.99-0.02c0.27,0.01,0.4,0.02,1.18,0.02h0.02
					C108.36,152.61,108.27,152.61,108.21,152.61"/>
				<path class="st0" d="M105.93,152.39c-0.15-0.02-0.28-0.05-1.07-0.19c-0.46-0.09-0.59-0.11-0.65-0.1
					c0.13,0.17,2.31,0.45,3.16,0.47c-0.03,0-0.06-0.01-0.09-0.01c0,0,0.01,0,0.02,0c-0.02,0-0.04,0-0.06,0
					C107.05,152.54,106.61,152.5,105.93,152.39"/>
				<path class="st0" d="M171.69,97.16c0.1-0.84,0.18-1.67,0.25-2.52c0.06-0.82,0.11-1.64,0.15-2.47c-0.15,1.57-0.44,4.5-0.5,5.81
					c0,0,0-0.01,0-0.01C171.62,97.7,171.66,97.43,171.69,97.16"/>
				<path class="st0" d="M170.77,100.9c0.18-1.03,0.37-2.94,0.01-2.69c-0.32,0.22-1.29,3.39-1.04,5.37
					c0.14,0.08,0.21,0.12,0.44-0.45C170.33,102.77,170.61,101.85,170.77,100.9"/>
				<path class="st0" d="M104.44,151.61c-1.8-0.83-1.62-0.41-1.62-0.41c0.17,0.32,2.2,0.97,2.41,0.86c0,0,0-0.01-0.01-0.01
					c0,0,0.01,0,0.02,0c-0.01-0.01-0.01-0.01-0.03-0.03C105.08,151.92,105.02,151.88,104.44,151.61"/>
				<path class="st0" d="M167.92,106.34c0.13-0.56,0.47-2.57-0.2-2.28c-1.03,0.44-2.22,4.72-1.41,5.08c0.19,0.09,0.43-0.21,0.59-0.4
					c0,0.01,0,0.02,0,0.03c0.01,0,0.02-0.01,0.03-0.01C167.11,108.46,167.61,107.65,167.92,106.34"/>
				<path class="st0" d="M104.62,150.3c-0.77-0.8-1.73-0.92-1.75-0.51c-0.03,0.49,1.66,1.37,1.94,1.17c0.01,0,0.01-0.01,0.02-0.02
					c0.01,0,0.02,0.01,0.03,0.01c0.01-0.01,0.01-0.01,0.02-0.03C104.9,150.83,104.96,150.64,104.62,150.3"/>
				<path class="st0" d="M106.44,148.38c-0.31-0.87-1.54-1.19-1.85-0.48c-0.28,0.65,0.81,1.64,1.52,1.38c0,0,0.13-0.05,0.21-0.11
					C106.59,148.91,106.49,148.53,106.44,148.38"/>
				<path class="st0" d="M163.39,112c0.49-1.58,0.24-2.54-0.55-2.13c-1.42,0.74-2.27,4.44-1.42,4.62c0.17,0.04,0.31-0.06,0.57-0.23
					c0,0.01,0,0.02,0,0.03c0.01,0,0.03,0,0.04-0.01C162.28,114.01,162.98,113.29,163.39,112"/>
				<path class="st0" d="M157.51,117.49c0.51-1.37,0.29-2.64-0.67-2.12c-1.49,0.8-2.66,4.09-1.52,4.3c0.34,0.06,0.87-0.33,1.03-0.45
					C156.56,119.04,157.12,118.55,157.51,117.49"/>
				<path class="st0" d="M110.05,146.01c-0.01-1.04-1.31-1.41-2.03-0.59c-0.17,0.19-0.4,0.59-0.11,1.09
					c0.04,0.06,0.38,0.63,1.08,0.6c0.17-0.01,0.22-0.04,0.27-0.07c0.02,0.03,0.02,0.03,0.19-0.07
					C109.73,146.8,110.06,146.59,110.05,146.01"/>
				<path class="st0" d="M115.06,143.1c0.16-0.95-0.73-1.53-1.83-0.8c-0.28,0.19-1.15,0.88-0.45,1.82c0.03-0.01,0.04,0,0.07,0.05
					c0.06,0.13,0.67,0.4,1.32,0.06C114.37,144.13,114.95,143.8,115.06,143.1"/>
				<path class="st0" d="M121.28,139.49c0.08-1.23-1.32-1.11-2.2-0.34c-0.78,0.67-0.99,1.94,0.14,2.11c0.38,0.06,0.87-0.19,0.89-0.2
					C121.18,140.46,121.28,139.5,121.28,139.49"/>
				<path class="st0" d="M143.52,126.88c0.31-1.33-0.6-1.48-1.61-0.85c-0.43,0.26-1.19,0.86-1.5,1.91c-0.15,0.51-0.19,1.16,0.54,1.3
					c0.38,0.08,0.98-0.27,0.99-0.27C143.17,128.18,143.52,126.9,143.52,126.88"/>
				<path class="st0" d="M150.75,122.44c0.29-0.73,0.5-2.18-0.78-1.67c-0.72,0.28-2.35,1.65-2.12,3.35c0.01,0,0.01,0,0.02-0.01
					c0.03,0.02,0.03,0.02,0.03,0.09c0,0.13,0.31,0.37,0.51,0.4c0.14,0.02,0.52-0.07,0.86-0.3
					C149.52,124.13,150.3,123.58,150.75,122.44"/>
				<path class="st0" d="M128.22,136.01c0.33-0.87-0.01-1.81-1.29-1.24c-0.74,0.33-1.32,0.99-1.51,1.44
					c-0.41,1.04,0.19,1.29,0.39,1.37c0.38,0.16,0.85-0.03,1.09-0.16C127.27,137.21,127.9,136.86,128.22,136.01"/>
				<path class="st0" d="M135.72,131.82c0.39-0.94,0.11-1.96-1.21-1.35c-1.52,0.71-2.54,2.76-1.23,3.13c0.38,0.11,0.99-0.22,1-0.22
					C134.67,133.14,135.33,132.75,135.72,131.82"/>
				<path class="st0" d="M106.1,152.54c-0.69-0.04-1.38-0.13-2.08-0.16c0.01,0,1.09,0.2,4.25,0.23h0.04
					C107.32,152.6,106.95,152.59,106.1,152.54"/>
				<path class="st0" d="M102.45,152c-1.98-0.4-1.98-0.4-2.05-0.38c0.41,0.26,3.42,0.74,4.24,0.77c-0.06-0.01-0.06-0.01-0.29-0.05
					C103.97,152.28,103.45,152.2,102.45,152"/>
				<path class="st0" d="M171.34,79.46c0-0.03-0.01-0.07-0.02-0.11c0.08,0.52,0.15,0.98,0.22,1.51
					C171.48,80.39,171.41,79.93,171.34,79.46"/>
				<path class="st0" d="M100.21,150.93c-1.91-0.73-2.05-0.66-2.1-0.63c-0.1,0.36,2.97,1.3,3.48,1.27c0-0.01,0-0.02,0.01-0.02
					c-0.02-0.02-0.04-0.04-0.06-0.05C101.19,151.32,100.77,151.15,100.21,150.93"/>
				<path class="st0" d="M171.95,86.1c-0.06-1.06-0.23-2.8-0.44-2.92c-0.15,0.12-0.22,1.5-0.18,2.28c0.16,3.08,0.41,3.41,0.48,3.43
					c0.06-0.03,0.1-0.05,0.16-0.86C171.96,86.3,171.96,86.3,171.95,86.1"/>
				<path class="st0" d="M99.35,149.31c-1.11-0.75-2.07-1.05-2.05-0.64c0,0.18,0.34,0.55,1.06,0.93c0.46,0.24,1.64,0.75,1.78,0.56
					c0.01-0.02,0.01-0.05,0.01-0.08c0.01,0,0.03,0.01,0.04,0.01c0,0,0,0,0-0.01C100.13,149.99,99.97,149.73,99.35,149.31"/>
				<path class="st0" d="M170.78,91.98c0.01-0.38,0.01-2.29-0.51-2.76c-0.92,0.05-1.03,4.67-0.43,5.38
					c0.26,0.31,0.55-0.33,0.61-0.46C170.53,93.91,170.76,93.3,170.78,91.98"/>
				<path class="st0" d="M100.11,147.16c-0.76-0.92-2.06-1.3-2.14-0.62c-0.02,0.14,0.01,0.64,0.99,1.28
					c0.68,0.43,1.16,0.54,1.45,0.3c0.02-0.02,0.03-0.04,0.04-0.05C100.57,147.76,100.25,147.33,100.11,147.16"/>
				<path class="st0" d="M167.82,97.9c0.14-1.41-0.21-3.12-0.9-2.55c-1.17,0.97-1.47,4.91-0.39,5.02c0.14,0.01,0.24-0.08,0.36-0.18
					c0,0.01,0,0.02,0,0.03c0.01,0,0.02,0,0.03,0c0.03-0.04,0.07-0.08,0.14-0.18C167.52,99.37,167.74,98.75,167.82,97.9"/>
				<path class="st0" d="M102.51,144.37c-0.58-1.06-2.07-1.26-2.29-0.31c-0.21,0.92,1.36,2.06,2.17,1.58
					c0.02-0.01,0.04-0.03,0.05-0.04c0.22-0.22,0.22-0.3,0.23-0.38C102.7,144.76,102.51,144.37,102.51,144.37"/>
				<path class="st0" d="M163.26,103.42c0.18-1.16-0.08-2.85-1.23-1.94c-0.37,0.29-1.65,1.81-1.11,3.82
					c0.03,0.01,0.09,0.04,0.13,0.26c0.03,0.16,0.39,0.31,0.39,0.31c0.05,0.02,0.32,0.11,0.56-0.14c0,0.01,0,0.02,0,0.03
					c0.01,0,0.02,0,0.03,0c0.03-0.02,0.1-0.08,0.21-0.19C162.6,105.19,163.06,104.71,163.26,103.42"/>
				<path class="st0" d="M106.68,141.1c-0.61-1.29-2.2-1-2.54-0.08c-0.37,1,1,2.04,1.84,1.69c0.11-0.04,0.22-0.07,0.32-0.13
					C107.06,142.01,106.68,141.11,106.68,141.1"/>
				<path class="st0" d="M157.35,109.09c0.2-1.05-0.09-2.68-1.32-1.91c-1.83,1.14-1.7,3.91-0.78,4.18c0.37,0.11,0.89-0.28,1.04-0.4
					C156.29,110.95,157.16,110.12,157.35,109.09"/>
				<path class="st0" d="M150.31,114.65c0.3-1.2-0.31-2.52-1.56-1.74c-1.7,1.05-1.59,3.55-0.8,3.76c0.09,0.02,0.59,0.12,1.12-0.3
					c0,0.01,0,0.03,0.01,0.04c0.02,0,0.04-0.01,0.06-0.02C150.1,115.48,150.25,114.88,150.31,114.65"/>
				<path class="st0" d="M112.43,137.87c-0.04-1.43-1.58-1.68-2.49-0.72c-1.02,1.07,0.12,2.24,1.04,2.18
					c0.29-0.02,0.63-0.21,0.72-0.26C111.91,138.93,112.45,138.57,112.43,137.87"/>
				<path class="st0" d="M119.15,133.98c0.14-1.1-0.97-2.09-2.25-1.09c-0.31,0.24-0.72,0.9-0.66,1.59c0,0.01,0.23,0.78,0.88,0.93
					c0.39,0.09,0.91-0.09,1.23-0.27C118.55,135.02,119.06,134.69,119.15,133.98"/>
				<path class="st0" d="M126.72,129.58c0.24-1.19-0.74-2.1-1.91-1.3c-0.63,0.43-1.02,1.02-1.04,1.57c-0.04,1.12,0.69,1.27,0.92,1.3
					c0.42,0.04,0.98-0.25,1.14-0.34C126.03,130.67,126.57,130.33,126.72,129.58"/>
				<path class="st0" d="M134.63,124.91c0.23-0.96-0.26-2.27-1.74-1.45c-1.3,0.72-1.69,2.63-0.61,3.05
					c0.49,0.19,1.18-0.18,1.38-0.29C133.87,126.09,134.43,125.72,134.63,124.91"/>
				<path class="st0" d="M142.58,119.94c0.27-1.07-0.25-2.42-1.7-1.55c-0.76,0.45-1.16,1.49-1.24,1.92
					c-0.09,0.46,0.12,1.24,0.64,1.39c0.35,0.1,0.9-0.09,1.29-0.33C141.79,121.21,142.36,120.81,142.58,119.94"/>
				<path class="st0" d="M106.97,152.6c-0.68-0.02-1-0.03-1.58-0.05c0.78,0.04,1.95,0.07,2.77,0.07h0.02
					C107.81,152.61,107.33,152.61,106.97,152.6"/>
				<path class="st0" d="M103.24,152.36c-0.99-0.1-1.96-0.26-2.95-0.36c0.24,0.07,2.63,0.45,5.79,0.57c-0.09,0-0.18-0.01-0.26-0.01
					C105.39,152.53,104.5,152.49,103.24,152.36"/>
				<path class="st0" d="M98.63,151.5c-2.46-0.56-2.46-0.56-2.58-0.57c0,0.01,0.01,0.02,0.01,0.03c1.09,0.44,4.55,1.06,5.11,1.08
					c-0.03-0.01-0.03-0.01-0.37-0.08C100.21,151.85,99.6,151.73,98.63,151.5"/>
				<path class="st0" d="M95.54,150.18c-1.65-0.63-2.38-0.86-2.61-0.83c0,0.01,0,0.03-0.01,0.04c0.43,0.48,3.8,1.55,4.35,1.53
					c-0.01-0.03-0.06-0.06-0.09-0.08c0.01,0,0.03,0.01,0.04,0.01C97.01,150.76,96.61,150.59,95.54,150.18"/>
				<path class="st0" d="M169.47,71.31c-0.33-1.1-0.75-2.36-0.92-2.65c-0.15,0.36,1.36,5.18,1.63,5.55
					c0.02-0.05,0.03-0.07-0.03-0.37C170.01,73.22,169.78,72.37,169.47,71.31"/>
				<path class="st0" d="M93.54,148.21c-0.46-0.27-2.01-1.15-2.42-0.94c-0.2,0.65,3.27,2.13,3.65,1.96c0.01,0,0.02-0.01,0.02-0.01
					c0-0.01,0-0.02,0-0.03c0-0.01-0.02-0.02-0.02-0.03c0.01,0,0.02,0.01,0.03,0.01c0-0.01,0-0.01,0-0.02
					c-0.01-0.01-0.01-0.02-0.02-0.03C94.67,148.98,94.5,148.78,93.54,148.21"/>
				<path class="st0" d="M170.16,76.91c-0.34-1.57-0.87-2.92-1.14-2.36c-0.46,0.95,0.61,5.54,1.22,5.22
					c0.05-0.03,0.07-0.12,0.09-0.18c0,0.01,0.01,0.02,0.01,0.03c0.02-0.04,0.02-0.04,0.04-0.22
					C170.42,78.99,170.48,78.41,170.16,76.91"/>
				<path class="st0" d="M168.96,82.71c-0.21-1.53-0.81-2.84-1.3-2.29c-0.26,0.29-0.59,1.26-0.38,2.64c0.06,0.41,0.4,2.43,1.12,2.39
					c0.16-0.01,0.26-0.09,0.45-0.55C168.93,84.67,169.14,84.04,168.96,82.71"/>
				<path class="st0" d="M93.31,145.9c-0.82-0.72-2.65-1.81-2.59-0.94c0.03,0.51,1.13,1.23,1.26,1.31c1.44,0.92,1.84,0.69,1.84,0.69
					c0.01-0.01,0.03-0.03,0.04-0.05c0.03,0.02,0.03,0.02,0.05,0.01c0.01-0.03,0.01-0.04,0.01-0.08
					C93.91,146.59,93.81,146.34,93.31,145.9"/>
				<path class="st0" d="M165.99,88.66c-0.06-1.51-0.71-3.07-1.59-2.09c-1.12,1.25-0.72,4.69,0.55,4.66c0.16,0,0.22-0.07,0.39-0.23
					c0,0.01,0.01,0.03,0.01,0.04c0.01,0,0.02,0,0.03,0c0.05-0.06,0.08-0.09,0.12-0.16C165.96,90.14,166.03,89.51,165.99,88.66"/>
				<path class="st0" d="M94.47,142.91c-0.88-1.17-2.33-1.64-2.5-0.8c-0.08,0.4,0.23,0.95,0.8,1.4c1.01,0.81,1.69,0.78,1.81,0.68
					c0.01-0.01,0.01-0.02,0.02-0.03c0.08,0,0.08,0,0.13-0.09C94.86,143.84,94.99,143.6,94.47,142.91"/>
				<path class="st0" d="M97.25,139.21c-1-1.37-2.34-1.02-2.49-0.22c-0.04,0.22-0.05,0.81,0.79,1.51c0.89,0.74,1.55,0.44,1.56,0.44
					c0.04-0.02,0.09-0.07,0.13-0.1c0.04-0.02,0.1-0.01,0.14-0.05c0.1-0.11,0.1-0.27,0.21-0.37
					C97.59,139.67,97.34,139.33,97.25,139.21"/>
				<path class="st0" d="M161.41,94.54c0-1.14-0.65-3.12-1.89-1.79c-1.48,1.58-0.53,4.21,0.4,4.21c0.34,0,0.79-0.44,0.8-0.44
					C160.72,96.51,161.41,95.63,161.41,94.54"/>
				<path class="st0" d="M102.09,135.79c-0.3-1.29-1.95-1.99-2.69-0.82c-0.76,1.22,0.83,2.43,1.75,2.27
					c0.21-0.04,0.43-0.18,0.54-0.26C101.83,136.86,102.25,136.5,102.09,135.79"/>
				<path class="st0" d="M155.4,100.27c0.07-1.56-0.75-2.54-1.96-1.53c-1.42,1.19-1.12,3.59,0.13,3.78
					c0.18,0.02,0.47,0.01,0.97-0.41C154.77,101.91,155.35,101.36,155.4,100.27"/>
				<path class="st0" d="M108.24,131.64c-0.14-1.22-1.65-2.16-2.71-0.94c-0.85,0.98,0.13,2.43,1.27,2.37
					c0.25-0.01,0.66-0.15,0.9-0.29C107.87,132.66,108.32,132.34,108.24,131.64"/>
				<path class="st0" d="M148.2,106.22c0.16-1.32-0.79-2.64-2.03-1.66c-0.91,0.72-0.92,1.95-0.92,1.96c0.02,0.7,0.28,1.13,0.28,1.13
					c0,0,0.41,0.34,0.74,0.4c0.15,0.02,0.57-0.01,0.86-0.22C147.71,107.4,148.09,107.12,148.2,106.22"/>
				<path class="st0" d="M115.57,127.09c-0.01-1.32-1.53-2.1-2.59-0.95c-0.42,0.45-0.52,1.1-0.25,1.66c0.4,0.84,1.13,0.78,1.4,0.76
					c0.29-0.02,0.68-0.24,0.79-0.3C115.1,128.13,115.58,127.81,115.57,127.09"/>
				<path class="st0" d="M140.32,111.61c0.22-1.47-0.97-2.13-2.16-1.19c-1.51,1.18-0.82,2.92,0.16,3.04
					c0.45,0.06,0.99-0.27,1.09-0.34C139.6,112.98,140.18,112.56,140.32,111.61"/>
				<path class="st0" d="M123.68,122.13c0.08-1.25-1.17-1.97-2.37-0.94c-1.11,0.97-0.77,2.47,0.57,2.55
					c0.34,0.02,0.74-0.18,0.95-0.3C123.03,123.31,123.63,122.91,123.68,122.13"/>
				<path class="st0" d="M132.01,116.99c0.11-1.11-0.84-2.1-2.14-1.12c-1.3,0.99-1.13,2.73,0.28,2.83c0.34,0.02,0.75-0.19,0.96-0.32
					C131.32,118.24,131.92,117.82,132.01,116.99"/>
				<path class="st0" d="M105.16,152.54c-1.45-0.07-2.66-0.19-3.05-0.23c0.02,0,0.04,0,0.06,0l1.06,0.1
					c0.73,0.05,1.71,0.11,2.44,0.15c0.74,0.02,1.73,0.04,2.46,0.05h0C106.51,152.6,105.67,152.56,105.16,152.54"/>
				<path class="st0" d="M99.71,151.99c-1.06-0.16-2.11-0.39-3.17-0.53c1.04,0.28,4.84,0.83,6.36,0.92
					c-0.07-0.01-0.15-0.01-0.22-0.02c0.01,0,0.03,0,0.04,0c-0.07-0.01-0.14-0.01-0.21-0.02
					C101.58,152.25,100.64,152.13,99.71,151.99"/>
				<path class="st0" d="M94.62,150.86c-0.6-0.16-1.08-0.29-1.37-0.37c-1.22-0.33-1.4-0.38-1.55-0.4c0.36,0.25,3.94,1.19,5.7,1.46
					c-0.09-0.03-0.09-0.03-0.41-0.11C96.38,151.3,95.63,151.13,94.62,150.86"/>
				<path class="st0" d="M90.53,149.19c-2.2-0.86-2.72-1.01-2.82-0.98c0.26,0.44,4.33,1.87,5.09,1.93c-0.02-0.03-0.07-0.06-0.1-0.08
					c0.01,0,0.02,0.01,0.03,0.01c-0.03-0.02-0.03-0.02-0.06-0.03C92.14,149.83,91.67,149.64,90.53,149.19"/>
				<path class="st0" d="M163.94,58.41c-0.4-0.7-0.81-1.4-1.24-2.09c-0.22-0.36-0.45-0.72-0.68-1.07c0.51,0.88,1.04,1.74,1.55,2.62
					c0.49,0.86,0.91,1.76,1.48,2.58C164.69,59.77,164.32,59.09,163.94,58.41"/>
				<path class="st0" d="M165.95,62.86c-0.11-0.24-1.11-2.32-1.48-2.38c-0.23,0.58,1.54,4.54,2.32,5.16c0.02,0,0.04-0.01,0.06-0.01
					c0.02-0.09,0.05-0.17-0.02-0.46C166.77,64.91,166.6,64.22,165.95,62.86"/>
				<path class="st0" d="M87.52,146.95c-0.87-0.48-2.38-1.25-2.66-1.03c0.62,0.85,4.08,2.38,4.45,2.23c0-0.02,0-0.04,0-0.05
					c0.01,0,0.02,0.01,0.03,0.01c-0.01-0.03-0.01-0.03-0.06-0.07C88.98,147.8,88.59,147.54,87.52,146.95"/>
				<path class="st0" d="M86.09,144.25c-1.49-1.11-2.68-1.56-2.55-0.96c0.01,0.06,0.17,0.62,1.64,1.52c0.3,0.19,1.96,1.11,2.11,0.78
					c0.01-0.03,0-0.09,0-0.13c0.01,0.01,0.03,0.01,0.04,0.02c0,0,0.01,0,0.01-0.01C87.23,145.32,86.97,144.91,86.09,144.25"/>
				<path class="st0" d="M166.71,68.44c-0.01-0.02-0.98-2.58-1.69-2.55c-0.83,1.05,1.32,5.29,1.86,5.1c0.12-0.04,0.22-0.3,0.24-0.52
					C167.14,70.26,167.17,69.68,166.71,68.44"/>
				<path class="st0" d="M86.24,141.12c-1.04-1.11-2.59-1.81-2.62-0.97c-0.03,0.99,2.55,2.94,3.21,2.43
					c0.01-0.01,0.1-0.08,0.13-0.19C86.99,141.98,86.52,141.42,86.24,141.12"/>
				<path class="st0" d="M165.51,73.92c-0.54-1.93-1.52-2.72-1.95-2.02c0,0.01-0.52,0.89,0.15,2.85c0.49,1.43,1.14,1.85,1.43,1.77
					c0.11-0.03,0.22-0.15,0.29-0.23c0.01,0.01,0.01,0.03,0.02,0.04c0.01,0,0.02,0,0.02,0c0,0,0.01-0.01,0.01-0.01
					C165.6,76,165.88,75.25,165.51,73.92"/>
				<path class="st0" d="M162.58,79.76c-0.24-1.3-1.25-3.09-2.11-2c-0.97,1.23,0,4.59,1.25,4.34c0.25-0.05,0.56-0.38,0.64-0.49
					C162.48,81.41,162.79,80.89,162.58,79.76"/>
				<path class="st0" d="M87.99,137.52c-0.94-1.34-2.42-1.83-2.65-0.87c-0.05,0.2-0.11,0.9,0.98,1.82c0.2,0.16,1.2,0.96,1.87,0.56
					c0.05-0.03,0.08-0.07,0.1-0.1C88.36,138.8,88.59,138.39,87.99,137.52"/>
				<path class="st0" d="M158,85.44c-0.2-1.76-1.4-2.46-2.19-1.73c-1.07,1-0.54,3.9,0.74,4.08c0.38,0.05,0.73-0.21,0.95-0.44
					C157.65,87.17,158.13,86.6,158,85.44"/>
				<path class="st0" d="M91.41,133.54c-0.77-1.57-2.38-1.85-2.77-0.81c-0.46,1.23,1.43,2.7,2.29,2.41c0.02-0.01,0.21-0.07,0.4-0.26
					C91.46,134.74,91.8,134.34,91.41,133.54"/>
				<path class="st0" d="M96.45,129.25c-0.43-1.45-2.21-2.2-2.85-0.86c-0.4,0.85,0.67,2.78,2.21,2.23c0.18-0.06,0.28-0.13,0.36-0.19
					C96.31,130.31,96.67,129.98,96.45,129.25"/>
				<path class="st0" d="M151.95,91.55c-0.04-1.44-1.25-2.82-2.35-1.65c-0.48,0.51-0.65,1.55-0.5,2.16c0.24,0.98,0.7,1.47,1.37,1.44
					c0,0,0.42-0.05,0.66-0.25C151.63,92.81,151.98,92.5,151.95,91.55"/>
				<path class="st0" d="M144.71,96.93c-0.18-1.47-1.63-1.79-2.58-0.58c-0.97,1.23-0.21,2.88,0.98,2.86c0.22,0,0.48-0.11,0.72-0.29
					c0.01,0.01,0.03,0.02,0.04,0.03c0.03,0,0.03,0,0.07-0.02C144.34,98.5,144.81,97.8,144.71,96.93"/>
				<path class="st0" d="M102.95,124.45c-0.24-1.32-1.83-1.98-2.74-0.79c-0.45,0.6-0.28,1.22-0.12,1.47
					c0.57,0.9,1.31,0.92,1.61,0.89c0.22-0.02,0.6-0.21,0.72-0.29C102.58,125.6,103.09,125.21,102.95,124.45"/>
				<path class="st0" d="M136.57,102.97c0.03-1.5-1.35-1.84-2.32-0.94c-0.51,0.47-0.71,1.12-0.54,1.73
					c0.05,0.17,0.12,0.43,0.69,0.86c0.05,0.04,0.14,0.1,0.62,0.11c0.24,0,0.46-0.07,0.69-0.25c0.04,0.01,0.07,0,0.13-0.03
					c0.08-0.06,0.12-0.11,0.25-0.26c0.07-0.08,0.19-0.12,0.24-0.22C136.43,103.76,136.56,103.36,136.57,102.97"/>
				<path class="st0" d="M110.68,119.55c-0.1-1.19-1.58-2.09-2.61-0.85c-0.87,1.04,0.19,2.32,1.19,2.25
					c0.23-0.02,0.68-0.18,0.88-0.29C110.3,120.54,110.74,120.24,110.68,119.55"/>
				<path class="st0" d="M119.22,114.24c-0.03-1.16-1.31-2.06-2.39-0.92c-1.04,1.09,0.04,2.4,0.92,2.33c0.2-0.01,0.7-0.2,0.89-0.31
					C118.8,115.22,119.24,114.92,119.22,114.24"/>
				<path class="st0" d="M127.93,108.75c0-1.19-1.22-2.1-2.31-0.94c-1.06,1.12-0.04,2.47,0.82,2.39c0.2-0.01,0.7-0.21,0.89-0.32
					C127.49,109.77,127.93,109.46,127.93,108.75"/>
				<path class="st0" d="M90.69,150c-0.94-0.29-1.87-0.61-2.81-0.9c1.01,0.43,4.68,1.53,6.14,1.83c-0.12-0.03-0.12-0.03-0.46-0.12
					C92.57,150.55,91.64,150.29,90.69,150"/>
				<path class="st0" d="M85.83,148.04c-2.55-1.07-2.59-1.09-2.76-1.12c0.06,0.27,4.86,2.25,5.58,2.3
					c-0.03-0.02-0.03-0.03-0.12-0.06c0.01,0,0.02,0,0.03,0.01c-0.19-0.08-0.38-0.16-0.57-0.24
					C87.87,148.88,85.85,148.05,85.83,148.04"/>
				<path class="st0" d="M81.78,145.46c-0.86-0.46-2.33-1.23-2.52-1.13c0.29,0.59,4.62,2.75,4.97,2.66
					c-0.03-0.06-0.05-0.09-0.24-0.24C83.96,146.73,83.26,146.26,81.78,145.46"/>
				<path class="st0" d="M158.42,50.31c-1.06-1.33-1.82-2.12-1.94-2.15c0.03,0.27,3.14,4.46,3.65,4.64
					c0.01-0.05,0.01-0.05-0.08-0.22c0.01,0.01,0.01,0.02,0.02,0.03c-0.01-0.03-0.01-0.03-0.05-0.09
					C159.87,52.27,159.45,51.6,158.42,50.31"/>
				<path class="st0" d="M79.64,142.77c-1.21-0.87-2.95-1.93-2.83-1.4c0.18,0.84,3.97,3.09,4.29,2.84c0.06-0.04-0.08-0.24-0.08-0.25
					C80.87,143.79,80.29,143.24,79.64,142.77"/>
				<path class="st0" d="M160.81,54.93c-0.07-0.1-1.63-2.46-2-1.94c0.33,1.46,2.39,4.39,3.06,4.55c0.05-0.03,0.09-0.11,0.11-0.17
					c0.01,0.01,0.02,0.02,0.02,0.03c0.01-0.03,0.01-0.03-0.02-0.16C161.9,56.95,161.73,56.33,160.81,54.93"/>
				<path class="st0" d="M78.49,139.32c-1.51-1.43-2.79-1.92-2.78-1.31c0.01,1,3.31,3.25,3.73,2.95c0.01-0.01,0.06-0.05,0.04-0.14
					c0.02,0,0.04,0.01,0.05,0.01c0,0,0-0.01,0-0.01C79.48,140.61,79.37,140.16,78.49,139.32"/>
				<path class="st0" d="M161.59,59.99c-0.5-0.95-1.83-2.73-2.12-1.85c-0.42,1.26,1.85,4.67,2.59,4.43
					c0.04-0.01,0.09-0.05,0.12-0.07c0-0.02,0-0.04,0-0.06c0.01,0,0.03,0.01,0.05,0.01c0.02-0.07,0.02-0.13,0.03-0.18
					C162.27,61.96,162.31,61.35,161.59,59.99"/>
				<path class="st0" d="M79.03,135.57c-1.04-1.3-2.71-2.28-2.83-1.44c-0.18,1.28,2.53,3.49,3.2,3.03c0,0,0.15-0.11,0.2-0.28
					C79.63,136.74,79.68,136.38,79.03,135.57"/>
				<path class="st0" d="M160.64,65.52c-0.46-1.12-1.86-3.16-2.39-1.83c-0.26,0.65-0.1,1.57,0.45,2.58
					c0.32,0.59,1.14,1.92,1.81,1.56c0.06-0.03,0.11-0.11,0.15-0.16c0.01,0.01,0.03,0.04,0.04,0.04c0.04-0.05,0.07-0.13,0.1-0.19
					C160.98,67,160.91,66.19,160.64,65.52"/>
				<path class="st0" d="M80.83,130.8c-1.24-1.55-2.44-1.36-2.54-0.42c-0.14,1.32,2.12,3.11,2.82,2.57
					c0.04-0.03,0.08-0.08,0.11-0.12c0.06,0,0.09-0.01,0.13-0.06C81.76,132.03,80.84,130.81,80.83,130.8"/>
				<path class="st0" d="M157.8,70.97c-0.43-1.34-1.74-2.99-2.52-1.55c-0.87,1.58,0.97,4.15,1.89,3.85c0.19-0.06,0.51-0.4,0.52-0.4
					C157.69,72.85,158.14,72.01,157.8,70.97"/>
				<path class="st0" d="M153.3,76.62c-0.27-1.44-1.55-2.72-2.49-1.46c-0.44,0.59-0.53,1.54-0.22,2.27c0.67,1.55,1.75,1.31,1.76,1.3
					c0.24-0.06,0.48-0.29,0.57-0.39C153.06,78.17,153.49,77.65,153.3,76.62"/>
				<path class="st0" d="M84.9,126.79c-0.68-1.56-2.48-2.27-2.87-1.14c-0.01,0.04-0.34,1,0.65,2.04c0.98,1.02,1.65,0.71,1.87,0.61
					c0.16-0.07,0.24-0.16,0.29-0.2C84.95,127.96,85.25,127.59,84.9,126.79"/>
				<path class="st0" d="M90.24,121.89c-0.42-1.4-2.13-2.23-2.79-1.01c-0.56,1.04,0.66,2.93,1.98,2.55c0.19-0.05,0.53-0.3,0.53-0.3
					C90.11,123,90.47,122.66,90.24,121.89"/>
				<path class="st0" d="M147.29,82.32c-0.23-1.4-1.55-2.47-2.56-1.13c-1.16,1.53,0.25,3.32,1.29,3.17c0.18-0.02,0.6-0.26,0.75-0.4
					C146.94,83.79,147.45,83.29,147.29,82.32"/>
				<path class="st0" d="M139.93,88.2c-0.13-1.61-1.66-1.92-2.5-0.86c-0.42,0.53-0.49,1.23-0.19,1.86c0.18,0.39,0.78,0.77,0.79,0.77
					c0,0,0.5,0.08,0.68,0.05c0.08-0.01,0.27-0.03,0.52-0.25c0.04,0.01,0.06,0.01,0.12-0.03c0.06-0.05,0.08-0.08,0.22-0.27
					c0.06-0.09,0.18-0.13,0.22-0.23C139.85,89.08,139.96,88.64,139.93,88.2"/>
				<path class="st0" d="M96.93,116.76c-0.24-1.22-1.77-2.15-2.61-0.88c-0.75,1.13,0.51,2.57,1.62,2.28c0,0,0.35-0.09,0.6-0.26
					C96.68,117.78,97.07,117.46,96.93,116.76"/>
				<path class="st0" d="M131.65,94.19c-0.03-1.41-1.46-1.72-2.27-0.81c-0.92,1.02,0.01,2.37,0.96,2.29
					c0.26-0.02,0.65-0.22,0.75-0.29C131.24,95.28,131.67,94.95,131.65,94.19"/>
				<path class="st0" d="M104.85,111.46c-0.06-0.87-1.26-2.1-2.35-0.93c-0.44,0.47-0.35,0.95-0.19,1.28
					c0.1,0.21,0.42,0.85,1.22,0.83c0,0,0.46-0.03,0.62-0.12C104.64,112.19,104.89,112.02,104.85,111.46"/>
				<path class="st0" d="M113.72,105.74c-0.16-1.16-1.52-1.62-2.15-0.72c-0.49,0.7-0.11,2.05,0.96,1.88c0,0,0.47-0.1,0.61-0.18
					C113.15,106.71,113.79,106.23,113.72,105.74"/>
				<path class="st0" d="M122.76,100.05c-0.13-1.12-1.35-1.62-2.02-0.82c-0.59,0.71-0.25,2.07,0.73,2.01c0,0,0.51-0.07,0.72-0.19
					C122.18,101.04,122.82,100.55,122.76,100.05"/>
				<path class="st0" d="M82.12,146.75c-0.86-0.4-1.48-0.71-1.71-0.83c0.52,0.26,1.22,0.6,1.74,0.85c0.67,0.3,1.56,0.7,2.23,1
					c0.02,0.01,0.03,0.01,0.05,0.02C84.15,147.66,83.27,147.29,82.12,146.75"/>
				<path class="st0" d="M148.17,40.01c-0.51-0.41-1.03-0.8-1.55-1.19c-0.86-0.63-1.07-0.77-1.13-0.8c0.02,0.02,4.53,3.61,4.84,3.82
					c-0.12-0.13-0.12-0.13-0.39-0.37c-0.17-0.15-0.32-0.28-0.65-0.55C148.92,40.62,148.54,40.31,148.17,40.01"/>
				<path class="st0" d="M77.51,144.11c-2.56-1.5-2.56-1.5-2.7-1.56c0.43,0.55,4.71,2.94,5.22,3.08c-0.01-0.03-0.01-0.03-0.1-0.09
					c0.01,0,0.02,0.01,0.03,0.01c-0.04-0.02-0.08-0.05-0.12-0.07C78.95,144.95,78.53,144.71,77.51,144.11"/>
				<path class="st0" d="M73.54,140.69c-0.69-0.5-1.91-1.34-2.33-1.44c-0.01,0.01-0.02,0.02-0.04,0.03
					c0.29,0.74,4.36,3.47,4.68,3.36c0-0.07-0.16-0.24-0.22-0.31C75.55,142.27,74.9,141.67,73.54,140.69"/>
				<path class="st0" d="M151.9,43.63c-0.53-0.5-2-1.82-2.38-1.88c-0.03,0.44,3.76,4.1,4.23,4.08c0-0.06,0-0.13-0.19-0.4
					C153.43,45.25,153.01,44.68,151.9,43.63"/>
				<path class="st0" d="M71.56,137.32c-0.65-0.61-2.2-1.99-2.59-1.71c-0.08,0.92,3.23,3.63,3.96,3.53
					c0.03-0.06,0.01-0.17-0.01-0.23c0.01,0.01,0.03,0.02,0.04,0.03c0,0,0-0.01,0.01-0.01C72.82,138.68,72.5,138.19,71.56,137.32"/>
				<path class="st0" d="M154.35,47.75c-0.44-0.48-1.8-1.86-2.31-1.89c-0.55,0.65,2.99,4.26,3.53,4.27c0.14,0,0.14-0.09,0.14-0.2
					c0.02-0.02,0.03-0.03,0.01-0.14C155.58,49.39,155.3,48.8,154.35,47.75"/>
				<path class="st0" d="M70.72,133.18c-1.13-1.32-2.52-2.28-2.62-1.55c-0.14,1.04,2.73,3.9,3.49,3.48c0.04-0.02,0.1-0.05,0.08-0.36
					C71.64,134.58,71.55,134.16,70.72,133.18"/>
				<path class="st0" d="M155.38,52.47c-0.96-1.37-2.31-2.5-2.55-1.83c-0.18,0.5,0.24,1.41,1.26,2.71c0.01,0.02,1.35,1.71,1.91,1.32
					c0.03-0.02,0.06-0.08,0.07-0.12c0.01,0.01,0.02,0.02,0.03,0.03c0.02-0.02,0.02-0.02,0.03-0.1
					C156.13,54.19,156.14,53.57,155.38,52.47"/>
				<path class="st0" d="M71.45,128.54c-1.01-1.44-2.38-1.99-2.54-1.03c-0.23,1.43,2.27,3.57,2.96,3.22
					c0.06-0.03,0.14-0.09,0.19-0.26c0.02,0,0.04,0.02,0.06,0.02c0,0,0-0.01,0.01-0.01C72.18,129.75,71.79,129.02,71.45,128.54"/>
				<path class="st0" d="M154.48,57.38c-0.75-1.4-2.17-2.7-2.6-1.62c-0.11,0.28-0.27,1.07,0.62,2.36c1.11,1.6,1.81,1.5,2,1.43
					c0.08-0.03,0.15-0.12,0.2-0.18c0.01,0.01,0.02,0.03,0.03,0.04c0.01,0,0.01,0,0.02,0c0.02-0.03,0.04-0.06,0.07-0.13
					C155.05,58.64,154.86,58.1,154.48,57.38"/>
				<path class="st0" d="M151.6,61.95c-1.09-1.81-2.29-1.55-2.55-0.5c-0.4,1.66,1.67,3.79,2.55,3.13c0.05-0.04,0.1-0.11,0.15-0.15
					c0.07,0,0.1-0.02,0.15-0.08C152.44,63.44,151.61,61.97,151.6,61.95"/>
				<path class="st0" d="M74.07,124c-0.78-1.52-2.35-2.35-2.72-1.09c-0.46,1.58,1.77,3.51,2.55,3.06l0.31-0.22
					C74.38,125.45,74.61,125.05,74.07,124"/>
				<path class="st0" d="M78.22,119.14c-0.53-1.41-2.2-2.55-2.8-1.22c-0.65,1.44,1.18,3.43,2.25,2.93c0,0,0.29-0.16,0.45-0.32
					C78.23,120.38,78.54,120,78.22,119.14"/>
				<path class="st0" d="M147.55,68.01c-0.55-1.77-2.3-2.58-2.84-1.31c-0.08,0.19-0.44,1.21,0.4,2.37c0.86,1.19,1.61,0.86,1.86,0.75
					c0.21-0.09,0.33-0.21,0.39-0.27C147.49,69.4,147.84,68.96,147.55,68.01"/>
				<path class="st0" d="M141.66,73.58c-0.35-1.59-1.99-2.49-2.77-1.13c-0.68,1.17,0.42,3.31,1.83,2.88
					c0.19-0.05,0.53-0.3,0.58-0.34C141.46,74.84,141.86,74.44,141.66,73.58"/>
				<path class="st0" d="M83.81,113.72c-0.39-1.46-2-2.19-2.71-0.88c-0.08,0.15-0.46,0.95,0.17,1.83c0.73,1.02,1.69,0.77,1.7,0.76
					c0,0,0.28-0.11,0.49-0.29C83.61,115,84.04,114.57,83.81,113.72"/>
				<path class="st0" d="M90.67,108.32c-0.23-1.19-1.62-2.11-2.48-0.94c-0.83,1.13,0.43,2.47,1.28,2.4
					c0.19-0.02,0.65-0.21,0.82-0.32C90.43,109.34,90.81,109.03,90.67,108.32"/>
				<path class="st0" d="M134.32,79.33c-0.26-1.6-1.93-2.02-2.57-0.97c-0.02,0.03-0.5,0.83,0.03,1.74c0.15,0.26,0.34,0.48,0.34,0.48
					c0.7,0.38,0.97,0.31,1.08,0.28c0.06-0.01,0.41-0.11,0.69-0.3C134.04,80.43,134.44,80.08,134.32,79.33"/>
				<path class="st0" d="M125.94,85.08c-0.09-1.24-1.42-1.51-2.13-0.72c-0.86,0.96,0.18,2.1,0.96,2.04
					c0.19-0.01,0.58-0.17,0.72-0.26C125.82,85.88,125.97,85.52,125.94,85.08"/>
				<path class="st0" d="M98.61,102.68c-0.22-1.18-1.58-1.64-2.15-0.73c-0.47,0.77,0.05,2.18,1.17,1.87
					c0.04-0.01,0.09-0.03,0.12-0.04c0.12-0.03,0.24-0.04,0.34-0.11C98.1,103.66,98.7,103.17,98.61,102.68"/>
				<path class="st0" d="M116.75,90.97c-0.05-0.88-1.13-1.17-1.73-0.45c-0.57,0.68,0.16,1.51,0.7,1.48c0.08,0,0.47-0.1,0.64-0.21
					C116.73,91.53,116.76,91.16,116.75,90.97"/>
				<path class="st0" d="M107.34,96.84c-0.03-0.8-1.05-1.06-1.6-0.42c-0.51,0.61,0.15,1.33,0.64,1.32c0.04,0,0.43-0.07,0.6-0.17
					C107.32,97.34,107.35,97.02,107.34,96.84"/>
				<path class="st0" d="M132.44,30.9c1.38,0.55,3.63,1.55,5.82,2.68c-0.09-0.05-0.19-0.1-0.28-0.15c-0.72-0.37-1.45-0.73-2.19-1.08
					c-0.67-0.31-1.56-0.7-2.23-1C133.19,31.2,132.82,31.04,132.44,30.9"/>
				<path class="st0" d="M140.32,34.77c-1.19-0.68-2.5-1.36-2.71-1.39c0.21,0.21,4.78,2.89,5.26,3.08c0.01,0,0.02-0.01,0.02-0.01
					c-0.07-0.07-0.12-0.12-0.36-0.29C141.94,35.75,141.2,35.28,140.32,34.77"/>
				<path class="st0" d="M69.81,139.05c-0.79-0.63-1.54-1.31-2.36-1.91c0.02,0.02,0.03,0.03,0.18,0.16l0.28,0.24
					c0.62,0.52,1.3,0.97,1.88,1.55c0.58,0.45,1.35,1.04,1.94,1.47l0.45,0.33c0.02,0.01,0.05,0.03,0.07,0.05
					c-0.04-0.04-0.04-0.04-0.13-0.1c0.01,0,0.01,0.01,0.02,0.01c-0.04-0.03-0.07-0.06-0.11-0.08
					C71.22,140.17,70.38,139.51,69.81,139.05"/>
				<path class="st0" d="M65.94,134.9c-0.63-0.59-1.73-1.6-2.07-1.71c0,0.01-0.01,0.02-0.02,0.03c0.38,0.88,4.04,4.16,4.26,4.03
					c-0.01-0.09-0.17-0.29-0.23-0.37C67.81,136.8,67.18,136.07,65.94,134.9"/>
				<path class="st0" d="M144.38,37.94c-0.58-0.42-2.19-1.51-2.65-1.55c0,0.01-0.01,0.03-0.01,0.05c0.41,0.65,4.03,3.37,4.62,3.35
					c0.01-0.05,0.02-0.11-0.17-0.33C146.03,39.29,145.59,38.81,144.38,37.94"/>
				<path class="st0" d="M64.16,130.99c-0.63-0.75-2.38-2.61-2.46-2.01c-0.1,0.82,3.22,4.51,3.66,4.08
					c0.06-0.06-0.04-0.36-0.04-0.36C65.21,132.45,64.74,131.68,64.16,130.99"/>
				<path class="st0" d="M146.93,41.43c-0.48-0.41-1.97-1.59-2.54-1.62c-0.58,0.56,3.32,3.69,3.92,3.7c0.15,0,0.15-0.08,0.15-0.18
					c0.02-0.02,0.04-0.03,0-0.12C148.29,42.83,147.97,42.33,146.93,41.43"/>
				<path class="st0" d="M63.54,126.26c-1-1.46-2.27-2.53-2.4-1.72c-0.19,1.14,2.37,4.33,3.11,3.88c0.04-0.02,0.1-0.06,0.11-0.4
					C64.33,127.82,64.27,127.35,63.54,126.26"/>
				<path class="st0" d="M148.21,45.59c-0.96-1.08-2.74-2.46-2.78-1.44c-0.04,1.03,2.88,3.85,3.56,3.43
					c0.03-0.02,0.06-0.08,0.07-0.11c0.01,0.01,0.03,0.02,0.04,0.03c0,0,0.01,0,0.02-0.01c0-0.03,0-0.03,0.01-0.08
					C149.1,47.14,149.08,46.58,148.21,45.59"/>
				<path class="st0" d="M64.59,121.12c-0.78-1.38-2.02-2.23-2.37-1.26c-0.5,1.39,1.81,4.12,2.63,3.68c0.06-0.03,0.14-0.09,0.2-0.28
					c0.01,0.01,0.04,0.02,0.05,0.02c0,0,0.01-0.01,0.01-0.02C65.22,122.46,64.89,121.66,64.59,121.12"/>
				<path class="st0" d="M147.59,50.03c-0.92-1.37-2.57-2.53-2.78-1.31c-0.25,1.48,2.35,3.81,3.05,3.23
					c0.03-0.03,0.06-0.08,0.09-0.11c0.01,0.01,0.02,0.02,0.04,0.03c0.01,0,0.01,0,0.02,0c0.03-0.04,0.04-0.07,0.06-0.12
					C148.27,51.11,147.93,50.52,147.59,50.03"/>
				<path class="st0" d="M144.95,54.2c-1.21-1.67-2.39-1.43-2.59-0.46c-0.31,1.53,1.89,3.49,2.74,2.87c0.05-0.04,0.1-0.1,0.14-0.14
					c0.07,0,0.1-0.01,0.14-0.07C145.9,55.55,144.96,54.21,144.95,54.2"/>
				<path class="st0" d="M67.47,116.16c-0.64-1.54-2.02-2.49-2.55-1.35c-0.11,0.23-0.39,1.07,0.36,2.33
					c0.65,1.08,1.52,1.27,1.76,1.22c0.18-0.04,0.46-0.29,0.46-0.3C67.69,117.74,67.94,117.3,67.47,116.16"/>
				<path class="st0" d="M71.86,110.92c-0.44-1.48-1.97-2.73-2.69-1.34c-0.75,1.45,0.91,3.63,2.01,3.18c0,0,0.3-0.13,0.5-0.34
					C71.8,112.26,72.13,111.85,71.86,110.92"/>
				<path class="st0" d="M141.19,59.8c-0.66-1.68-2.42-2.42-2.91-1.23c-0.07,0.18-0.39,1.13,0.5,2.22c0.92,1.12,1.67,0.81,1.91,0.71
					c0.21-0.09,0.32-0.2,0.38-0.25C141.2,61.1,141.53,60.68,141.19,59.8"/>
				<path class="st0" d="M135.52,65.07c-0.42-1.5-2.09-2.36-2.83-1.08c-0.65,1.13,0.54,3.18,1.95,2.78
					c0.19-0.05,0.53-0.29,0.57-0.33C135.37,66.29,135.75,65.92,135.52,65.07"/>
				<path class="st0" d="M77.66,105.2c-0.31-1.43-1.71-2.23-2.55-1.06c-1.01,1.4,0.47,3.02,1.47,2.89c0.21-0.03,0.56-0.25,0.67-0.34
					C77.4,106.55,77.86,106.09,77.66,105.2"/>
				<path class="st0" d="M128.36,70.62c-0.25-1.26-1.76-2.21-2.62-0.91c-0.78,1.17,0.4,2.55,1.4,2.44c0.3-0.03,0.73-0.27,0.82-0.33
					C128.1,71.69,128.5,71.36,128.36,70.62"/>
				<path class="st0" d="M84.65,99.62c-0.19-1.23-1.54-2.17-2.41-0.98c-0.86,1.17,0.35,2.56,1.19,2.48
					c0.19-0.02,0.65-0.22,0.82-0.33C84.38,100.67,84.76,100.34,84.65,99.62"/>
				<path class="st0" d="M120.01,76.19c-0.09-1.14-1.45-1.56-2.23-0.68c-0.83,0.93,0.24,2.06,1.02,2c0.14-0.01,0.59-0.16,0.75-0.26
					C119.88,76.99,120.04,76.64,120.01,76.19"/>
				<path class="st0" d="M92.62,93.79c-0.19-1.14-1.42-1.65-2.04-0.84c-0.58,0.76-0.08,2.22,0.93,2.03c0,0,0.46-0.1,0.59-0.18
					C92.1,94.8,92.7,94.3,92.62,93.79"/>
				<path class="st0" d="M101.35,87.8c-0.05-0.88-1.13-1.17-1.72-0.45c-0.57,0.68,0.16,1.51,0.7,1.48c0.08,0,0.47-0.1,0.64-0.21
					C101.33,88.35,101.36,87.99,101.35,87.8"/>
				<path class="st0" d="M110.72,81.84c-0.22-0.9-1.18-1.15-1.75-0.19c-0.51,0.86,0.1,1.39,0.96,1.25c0,0,0.19-0.03,0.41-0.16
					C110.49,82.62,110.85,82.35,110.72,81.84"/>
				<path class="st0" d="M126.97,28.99c-1.87-0.56-3.16-0.84-3.18-0.84c0.06,0.02,6.19,1.85,6.25,1.87
					c-0.27-0.11-0.27-0.11-0.46-0.18C129.24,29.72,128.33,29.4,126.97,28.99"/>
				<path class="st0" d="M131.97,30.86c-1.2-0.48-2.65-0.99-2.93-1.03c0.02,0.02,5.26,2.28,5.61,2.32c0-0.01,0-0.02,0-0.03
					c-0.14-0.09-0.34-0.2-0.34-0.2C133.96,31.74,133.2,31.36,131.97,30.86"/>
				<path class="st0" d="M59.51,128.45c-0.46-0.59-1.54-1.96-1.83-2.17c-0.07,0.24,3.08,4.25,3.63,4.62
					c-0.09-0.15-0.18-0.3-0.28-0.44C60.87,130.22,60.52,129.72,59.51,128.45"/>
				<path class="st0" d="M136.26,33.34c-0.91-0.49-2.45-1.23-2.93-1.27c0,0.01-0.01,0.02-0.01,0.03c0.48,0.51,4.66,2.77,5.02,2.71
					c0-0.07,0-0.07-0.08-0.15c0.01,0,0.02,0.01,0.03,0.01c0-0.01-0.02-0.03-0.03-0.04C138.04,34.45,137.56,34.04,136.26,33.34"/>
				<path class="st0" d="M57.63,123.83c-0.36-0.56-1.86-2.74-2.02-2.28c-0.22,0.63,2.5,4.75,3.03,4.59c0.09-0.03,0-0.33-0.02-0.42
					C58.52,125.45,58.12,124.59,57.63,123.83"/>
				<path class="st0" d="M139.22,36.3c-1.26-0.88-2.95-1.76-2.94-1.43c0.02,0.66,3.91,3.3,4.34,2.94c0.01,0,0.01-0.02,0.02-0.02
					c0-0.01-0.01-0.03-0.02-0.04c0.01,0,0.02,0,0.02,0.01c-0.01-0.07-0.01-0.07-0.2-0.4C140.04,37.01,139.67,36.61,139.22,36.3"/>
				<path class="st0" d="M140.37,39.47c-0.96-0.85-2.7-1.97-2.63-1.12c0.08,1,3.27,3.48,3.7,2.88c0.03-0.05,0.04-0.13,0.05-0.18
					c0.01,0.01,0.03,0.02,0.04,0.03c0,0,0.01-0.01,0.02-0.01C141.49,40.83,141.33,40.31,140.37,39.47"/>
				<path class="st0" d="M57.25,118.68c-0.82-1.59-1.89-2.77-2.14-1.93c-0.28,0.95,1.9,4.62,2.6,4.36c0.03-0.01,0.12-0.06,0.12-0.23
					c0.01,0,0.01,0.01,0.02,0.01c0.01,0,0.02-0.01,0.02-0.01C57.87,120.55,57.87,119.88,57.25,118.68"/>
				<path class="st0" d="M58.61,113.39c-0.67-1.74-1.85-2.9-2.26-1.78c-0.14,0.37-0.25,1.2,0.49,2.59c0.97,1.79,1.68,1.52,1.71,1.51
					c0.07-0.03,0.13-0.13,0.18-0.19c0.01,0.01,0.02,0.03,0.03,0.04c0.02-0.01,0.04-0.02,0.08-0.14
					C59.04,114.73,58.92,114.2,58.61,113.39"/>
				<path class="st0" d="M140.28,43.45c-0.81-0.97-2.82-2.47-2.86-1.13c-0.02,0.8,0.96,1.73,1.27,2c0.47,0.41,0.85,0.68,1.14,0.8
					c0.2,0.09,0.67,0.15,0.81,0.02c0.02-0.02,0.04-0.05,0.05-0.07c0.03,0.03,0.03,0.03,0.06,0.03c0.02-0.03,0.04-0.06,0.07-0.14
					C140.94,44.46,140.62,43.85,140.28,43.45"/>
				<path class="st0" d="M61.42,107.27c-0.85-1.88-1.94-1.67-2.28-0.71c-0.26,0.72-0.04,1.66,0.27,2.22c0.78,1.4,1.4,1.42,1.7,1.31
					c0.1-0.04,0.21-0.16,0.28-0.24c0.06,0,0.1-0.02,0.14-0.08C62.08,108.82,61.43,107.28,61.42,107.27"/>
				<path class="st0" d="M138.28,47.62c-0.88-1.37-2.62-2.35-2.91-0.97c-0.27,1.31,2.03,3.23,2.8,2.73l0.32-0.26
					C138.5,49.11,138.81,48.44,138.28,47.62"/>
				<path class="st0" d="M134.61,52.27c-0.65-1.52-2.49-2.41-3.01-1.1c-0.09,0.22-0.29,1.02,0.73,2.13c0.9,0.99,1.74,0.59,1.75,0.58
					c0.03-0.02,0.08-0.05,0.11-0.08c0.03,0.04,0.06,0.09,0.29-0.14C134.64,53.5,134.97,53.11,134.61,52.27"/>
				<path class="st0" d="M66.15,102.31c-0.29-1.35-1.6-2.88-2.49-1.52c-0.4,0.61-0.25,1.83-0.08,2.2c0.03,0.06,0.73,1.56,1.68,1.29
					c0.06-0.02,0.36-0.11,0.61-0.38C66.01,103.73,66.36,103.29,66.15,102.31"/>
				<path class="st0" d="M129.22,57.06c-0.42-1.38-2.22-2.23-2.89-1.04c-0.61,1.08,0.69,3.09,2.07,2.64
					c0.12-0.04,0.31-0.13,0.47-0.26C129.05,58.24,129.47,57.86,129.22,57.06"/>
				<path class="st0" d="M72.15,96.4c-0.18-1.66-1.6-2.32-2.5-1.14c-1.02,1.33,0.18,3.22,1.24,3.11c0.24-0.02,0.61-0.23,0.77-0.37
					C71.81,97.86,72.26,97.42,72.15,96.4"/>
				<path class="st0" d="M79.23,90.48c-0.12-1.55-1.51-1.91-2.37-0.97c-0.6,0.65-0.5,1.47-0.36,1.8c0.06,0.14,0.22,0.53,0.76,0.89
					c0.23,0.15,0.75,0.11,0.75,0.11c0.08-0.01,0.27-0.03,0.52-0.25c0.04,0.01,0.06,0.01,0.12-0.03c0.05-0.04,0.05-0.04,0.22-0.27
					c0.06-0.09,0.18-0.13,0.22-0.23C79.1,91.52,79.28,91.04,79.23,90.48"/>
				<path class="st0" d="M122.33,62.32c-0.24-1.35-1.89-2.33-2.84-0.89c-0.45,0.69-0.05,1.43,0.23,1.81
					c0.39,0.53,1.19,0.64,1.51,0.55c0,0,0.4-0.11,0.67-0.3C122.05,63.37,122.45,63.04,122.33,62.32"/>
				<path class="st0" d="M87.22,84.68c-0.03-1.4-1.44-1.71-2.25-0.81c-0.91,1.02,0.01,2.38,0.95,2.3c0.25-0.02,0.64-0.22,0.75-0.29
					C86.81,85.78,87.23,85.45,87.22,84.68"/>
				<path class="st0" d="M114.17,67.56c-0.22-1.36-1.78-1.71-2.61-0.58c-0.43,0.58-0.33,1.17,0.28,1.77c0.02,0,0.04-0.01,0.06,0
					c0.07,0.03,0.08,0.12,0.15,0.16c0.07,0.04,0.19,0.05,0.27,0.07c0.13,0.04,0.31,0.1,0.41,0.1c0.19,0,0.36-0.09,0.55-0.1
					c0.06,0,0.15-0.06,0.18-0.08c0.46-0.3,0.46-0.3,0.58-0.51C114.1,68.23,114.23,67.92,114.17,67.56"/>
				<path class="st0" d="M95.94,78.85c-0.02-1.22-1.33-1.49-2.1-0.7c-0.91,0.95,0.06,2.06,0.84,2c0.21-0.02,0.61-0.18,0.74-0.26
					C95.78,79.63,95.95,79.29,95.94,78.85"/>
				<path class="st0" d="M105.08,73.15c-0.03-1.13-1.39-1.54-2.23-0.67c-0.89,0.92,0.12,2.03,0.91,1.98
					c0.16-0.01,0.58-0.14,0.78-0.26C104.91,73.95,105.09,73.6,105.08,73.15"/>
				<path class="st0" d="M109.8,26.4c-0.11,0-0.44,0-0.82,0c3.02,0,5.34,0.21,6.84,0.36c-0.08-0.01-0.16-0.02-0.24-0.02
					c0.01,0,0.02,0,0.03,0c-0.08-0.01-0.17-0.02-0.25-0.02c-0.11-0.01-0.22-0.02-0.32-0.03c-0.33-0.03-0.65-0.06-0.98-0.08
					c-0.76-0.05-1.77-0.11-2.53-0.15c-0.49-0.01-1.14-0.03-1.63-0.04C109.86,26.4,109.83,26.4,109.8,26.4"/>
				<path class="st0" d="M118.1,27.05c-1.76-0.26-3.09-0.37-3.24-0.38c2.15,0.26,4.28,0.64,6.42,0.96
					c-0.09-0.03-0.09-0.03-0.31-0.07c0.01,0,0.02,0,0.03,0.01c0,0-0.01,0-0.01,0C120.61,27.48,119.59,27.27,118.1,27.05"/>
				<path class="st0" d="M123.35,28.17c-1.28-0.32-2.64-0.6-3.05-0.65c0.05,0.02,5.66,1.51,5.75,1.48
					c-0.05-0.03-0.05-0.03-0.14-0.07c0.01,0,0.02,0.01,0.03,0.01c-0.02-0.01-0.04-0.02-0.06-0.02
					C125.55,28.79,124.78,28.53,123.35,28.17"/>
				<path class="st0" d="M54.27,121.14c-0.6-1.04-0.92-1.63-1.11-1.98c0.25,0.46,0.59,1.08,0.85,1.54c0.37,0.63,0.86,1.47,1.24,2.09
					l0.22,0.36C55.03,122.45,54.52,121.59,54.27,121.14"/>
				<path class="st0" d="M127.76,29.82c-1.36-0.51-2.79-0.91-3-0.91c0.27,0.29,5.06,2.09,5.18,1.95c-0.01-0.02-0.01-0.02-0.07-0.06
					c0.01,0,0.02,0.01,0.03,0.01c-0.03-0.03-0.03-0.03-0.12-0.08C129.53,30.59,129.08,30.31,127.76,29.82"/>
				<path class="st0" d="M130.84,31.93c-0.8-0.42-2.47-1.16-2.68-1.01c0.14,0.37,3.98,2.64,4.38,2.26
					c-0.02-0.11-0.02-0.11-0.08-0.18C132.36,32.89,132.05,32.55,130.84,31.93"/>
				<path class="st0" d="M52.38,116.06c-0.05-0.1-1.2-2.55-1.52-2.69c-0.1,0.07,0.09,0.9,0.79,2.45c0.89,1.95,1.46,2.73,1.56,2.72
					c0.01,0,0.02-0.01,0.03-0.01c0.02-0.05,0.02-0.05-0.01-0.13c0,0,0.01,0.01,0.02,0.02c-0.05-0.21-0.12-0.43-0.17-0.64
					C52.83,117.22,52.64,116.62,52.38,116.06"/>
				<path class="st0" d="M52.03,110.27c-0.28-0.76-1.17-2.8-1.53-2.15c-0.1,0.19-0.22,1.06,0.44,2.8c0.22,0.57,1.06,2.29,1.43,2.09
					c0.1-0.05,0.12-0.22,0.15-0.39c0,0.01,0.01,0.02,0.02,0.03c0.01,0,0.01-0.01,0.02-0.01C52.54,112.32,52.5,111.53,52.03,110.27"
					/>
				<path class="st0" d="M132.74,34.65c-0.65-0.46-2.43-1.52-2.78-1.24c0.06,0.95,3.37,2.88,3.77,2.57c0.02-0.02,0.1-0.1,0.07-0.24
					C133.76,35.63,133.65,35.31,132.74,34.65"/>
				<path class="st0" d="M53.58,104.71c-0.34-1.31-1.2-2.77-1.73-1.98c-0.81,1.19,0.43,4.66,1.33,4.63c0.31-0.01,0.49-0.46,0.5-0.48
					C53.89,106.18,53.71,105.22,53.58,104.71"/>
				<path class="st0" d="M132.81,37.71c-0.42-0.4-1.07-0.94-1.83-1.22c-0.21-0.07-0.88-0.27-0.84,0.26
					c0.07,1.06,2.49,3.05,3.28,2.39c0.03,0.02,0.05,0.04,0.07,0.01C133.53,38.95,133.63,38.51,132.81,37.71"/>
				<path class="st0" d="M131.28,41.28c-0.94-1.32-2.6-2-2.72-0.81c-0.13,1.28,1.91,2.98,2.83,2.36c0.04,0.04,0.06,0.06,0.16-0.09
					C131.69,42.51,131.9,42.15,131.28,41.28"/>
				<path class="st0" d="M56.75,99c-0.27-1.44-1.18-2.78-1.97-1.61c-0.01,0.01-0.98,1.49,0.28,3.56c0.01,0,0.02,0,0.03,0
					c0.74,0.96,1.23,0.47,1.4,0.22C56.62,100.97,57.01,100.33,56.75,99"/>
				<path class="st0" d="M61.51,93.37c-0.14-1.43-1.27-2.85-2.17-1.78c-1.16,1.39-0.09,3.84,0.61,3.99
					c0.18,0.04,0.64,0.09,0.96-0.33c0,0.01,0.02,0.03,0.02,0.04c0.02,0,0.04-0.01,0.05-0.02C61.6,94.27,61.54,93.62,61.51,93.37"/>
				<path class="st0" d="M128.03,45.28c-0.85-1.66-2.48-1.87-2.85-0.75c-0.23,0.68,0.2,1.39,0.68,1.82
					c0.98,0.88,1.66,0.58,1.88,0.49c0.02,0.02,0.05,0.06,0.09,0.01C128.04,46.63,128.48,46.15,128.03,45.28"/>
				<path class="st0" d="M123.11,49.75c-0.44-1.35-2.17-2.3-2.91-0.86c-0.6,1.17,0.79,2.78,2.06,2.39c0,0,0.34-0.11,0.58-0.29
					C122.98,50.87,123.36,50.52,123.11,49.75"/>
				<path class="st0" d="M67.57,87.54c-0.05-1.46-1.2-2.81-2.28-1.64c-0.47,0.51-0.64,1.54-0.5,2.15c0.29,1.23,0.89,1.47,1.34,1.45
					c0,0,0.41-0.05,0.64-0.25C67.27,88.78,67.6,88.48,67.57,87.54"/>
				<path class="st0" d="M74.73,81.17c-0.18-1.45-1.59-1.78-2.53-0.58c-0.96,1.23-0.22,2.89,0.94,2.87c0.22,0,0.47-0.11,0.71-0.29
					c0.01,0.01,0.02,0.02,0.03,0.04c0.03,0,0.03,0,0.07-0.02C74.37,82.75,74.84,82.04,74.73,81.17"/>
				<path class="st0" d="M116.54,54.37c-0.31-1.64-2.18-1.8-2.93-0.6c-0.73,1.18,0.71,2.55,1.87,2.19c0,0,0.31-0.11,0.53-0.25
					C116.19,55.58,116.7,55.2,116.54,54.37"/>
				<path class="st0" d="M82.65,75.73c0.03-1.48-1.33-1.82-2.27-0.93c-0.5,0.47-0.71,1.13-0.55,1.73c0.05,0.2,0.12,0.44,0.67,0.86
					c0.04,0.03,0.14,0.1,0.61,0.11c0.32,0.01,0.55-0.14,0.69-0.25c0.05,0.01,0.08,0,0.13-0.03c0.07-0.05,0.11-0.1,0.24-0.26
					c0.07-0.08,0.19-0.12,0.24-0.22C82.51,76.52,82.64,76.12,82.65,75.73"/>
				<path class="st0" d="M108.7,59.52c-0.08-1.18-1.61-2.34-2.82-0.87c-0.48,0.58-0.31,1.18-0.09,1.58
					c0.19,0.35,0.19,0.35,0.42,0.47c0.18,0.1,0.56,0.31,0.96,0.28c0.23-0.02,0.73-0.2,0.95-0.32
					C108.29,60.54,108.75,60.23,108.7,59.52"/>
				<path class="st0" d="M100.01,64.73c-0.05-1.21-1.42-2.12-2.51-0.88c-1.01,1.16-0.05,2.47,1.01,2.37
					c0.31-0.03,0.79-0.26,0.89-0.32C99.57,65.77,100.04,65.45,100.01,64.73"/>
				<path class="st0" d="M91.2,70.22c-0.01-1.43-1.54-2.02-2.41-0.93c-0.16,0.19-0.54,0.88-0.31,1.53c0.15,0.43,0.31,0.61,0.31,0.61
					c0,0,0.52,0.3,0.87,0.29c0.17,0,0.62-0.14,0.91-0.31C90.74,71.28,91.21,70.95,91.2,70.22"/>
				<path class="st0" d="M109.04,26.39h-0.06c1.38,0,2.23,0.04,3.41,0.1c-0.07,0-0.14-0.01-0.22-0.01c0.01,0,0.03,0,0.04,0
					c-0.08,0-0.15-0.01-0.23-0.01C110.99,26.42,110.06,26.39,109.04,26.39"/>
				<path class="st0" d="M114.67,26.68c-1.41-0.14-2.6-0.21-3.04-0.22c2.21,0.16,2.21,0.16,2.94,0.24c0.96,0.11,1.9,0.29,2.86,0.37
					c-0.09-0.02-0.09-0.02-0.31-0.06c0.01,0,0.02,0,0.03,0.01c-0.02,0-0.05-0.01-0.07-0.01C116.78,26.94,115.96,26.81,114.67,26.68"
					/>
				<path class="st0" d="M119.13,27.46c-1.12-0.24-2.33-0.43-2.58-0.44c0.03,0.01,4.86,1.15,5.05,1.13
					c-0.04-0.04-0.07-0.06-0.22-0.11C120.82,27.86,120.06,27.66,119.13,27.46"/>
				<path class="st0" d="M48.5,107.38c-0.66-2.22-0.82-2.6-0.82-2.61c0,0.09,0,0.09,0.06,0.32c0.15,0.58,0.36,1.34,0.52,1.91
					c0.22,0.72,0.51,1.69,0.74,2.4l0.19,0.57c0.06,0.17,0.06,0.18,0.1,0.27c0-0.03,0.01-0.06-0.06-0.31
					C49.01,109.13,48.87,108.65,48.5,107.38"/>
				<path class="st0" d="M122.81,28.83c-0.89-0.32-2.46-0.77-2.56-0.7c0.18,0.2,4.01,1.73,4.34,1.58c0-0.01,0-0.02,0-0.03
					c-0.01-0.01-0.03-0.02-0.04-0.03c0.01,0,0.02,0.01,0.03,0.01c-0.01-0.02-0.01-0.02-0.06-0.06
					C124.08,29.3,123.18,28.97,122.81,28.83"/>
				<path class="st0" d="M125.11,30.74c-0.99-0.54-2.6-1.17-2.55-0.88c0.08,0.53,3.4,2.27,3.7,1.93c0.03-0.04,0-0.17,0-0.17
					C126.16,31.47,125.77,31.1,125.11,30.74"/>
				<path class="st0" d="M48.34,101.64c-0.04-0.21-0.44-2.11-0.86-2.47c-0.02,0-0.06,0-0.08,0.01c-0.64,0.93,0.68,5.41,1.07,5.3
					c0.04-0.01,0.08-0.06,0.09-0.22c0,0,0.01,0.01,0.02,0.02c0.01-0.04,0.01-0.04,0.02-0.16C48.62,103.73,48.65,103.13,48.34,101.64
					"/>
				<path class="st0" d="M49.97,95.9c-0.2-1.54-0.75-2.87-1.21-2.31c-0.3,0.37-0.51,1.39-0.33,2.66c0.03,0.25,0.36,2.41,1.05,2.38
					c0.17-0.01,0.24-0.11,0.41-0.54C49.97,97.83,50.15,97.24,49.97,95.9"/>
				<path class="st0" d="M125.72,33.11c-1.18-0.95-2.55-1.39-2.48-0.81c0.09,0.8,2.86,2.56,3.16,2c0-0.01,0-0.02,0.01-0.03
					c0.02,0,0.03,0.01,0.05,0.01c0,0,0,0,0-0.01C126.48,34.11,126.52,33.75,125.72,33.11"/>
				<path class="st0" d="M53.27,90.18c-0.07-1.35-0.66-2.98-1.39-2.37c-1.03,0.88-0.83,4.63,0.26,4.84
					c0.33,0.06,0.64-0.34,0.76-0.52C53.01,91.93,53.33,91.38,53.27,90.18"/>
				<path class="st0" d="M124.76,36.02c-0.77-0.93-2.43-1.86-2.6-0.77c-0.1,0.64,0.73,1.35,0.99,1.56c1.01,0.81,1.51,0.61,1.64,0.53
					c0.02-0.01,0.05-0.04,0.07-0.06c0.04,0.03,0.05,0.05,0.15-0.08C125.22,36.8,125.02,36.33,124.76,36.02"/>
				<path class="st0" d="M58.08,84.21c0-0.98-0.51-2.99-1.69-1.9c-1.44,1.34-0.79,4.34,0.25,4.33c0.32,0,0.76-0.44,0.76-0.45
					C57.41,86.18,58.08,85.28,58.08,84.21"/>
				<path class="st0" d="M121.91,39.21c-0.74-1.32-2.27-1.65-2.63-0.56c-0.19,0.57,0.09,1.18,0.85,1.79c0.03-0.01,0.05,0,0.12,0.07
					c0.2,0.19,1.14,0.49,1.61,0.07c0.27-0.27,0.27-0.41,0.28-0.47C122.13,39.99,122.15,39.63,121.91,39.21"/>
				<path class="st0" d="M117.54,43.09c-0.37-1.24-2.06-1.96-2.76-0.89c-0.53,0.81,0.17,2.67,1.81,2.41
					c0.08-0.01,0.25-0.04,0.45-0.22c0.02,0.04,0.04,0.04,0.08,0.02C117.73,43.72,117.59,43.26,117.54,43.09"/>
				<path class="st0" d="M64.19,78.3c0.07-1.53-0.72-2.5-1.88-1.52c-1.4,1.19-1.14,3.6,0.09,3.78c0.17,0.03,0.45,0.01,0.95-0.41
					C63.57,79.95,64.15,79.39,64.19,78.3"/>
				<path class="st0" d="M111.39,47.35c-0.19-1.29-1.79-2.19-2.83-0.83c-0.83,1.09,0.18,2.46,1.38,2.36
					c0.3-0.03,0.76-0.22,0.92-0.32C111.03,48.42,111.5,48.09,111.39,47.35"/>
				<path class="st0" d="M71.26,72.84c0.15-1.32-0.74-2.6-1.95-1.65c-0.97,0.77-1.54,3.22,0.04,3.5c0.15,0.02,0.56-0.01,0.85-0.22
					C70.8,74.02,71.16,73.74,71.26,72.84"/>
				<path class="st0" d="M103.96,51.85c-0.02-1.31-1.58-2.1-2.64-0.97c-0.86,0.91-0.4,2.63,0.98,2.53c0.4-0.03,0.76-0.22,0.9-0.3
					C103.43,52.95,103.97,52.59,103.96,51.85"/>
				<path class="st0" d="M79.15,67.11c0.11-1.22-0.74-2.28-2.08-1.21c-1.36,1.09-1.27,3.02,0.15,3.13c0.36,0.03,0.87-0.28,1.01-0.38
					C78.44,68.5,79.07,68.03,79.15,67.11"/>
				<path class="st0" d="M87.46,61.81c0.11-1.21-0.94-2.27-2.22-1.22c-0.21,0.17-0.86,0.8-0.76,1.82c0.03,0.32,0.2,0.63,0.32,0.74
					c0.26,0.27,0.26,0.27,0.73,0.32c0.24,0.03,0.48,0.06,1.13-0.34C86.86,62.98,87.39,62.61,87.46,61.81"/>
				<path class="st0" d="M95.83,56.69c0.06-1.37-1.34-2.16-2.48-1c-0.23,0.23-0.73,0.86-0.47,1.75c0.23,0.8,0.91,0.82,1.21,0.83
					c0.12,0,0.4,0.01,1-0.34C95.27,57.81,95.79,57.45,95.83,56.69"/>
				<path class="st0" d="M108.97,26.39c0.09,0,0.18,0,0.27,0c-0.07,0-0.14,0-0.21,0c0.01,0,0.03,0,0.04,0
					C109.04,26.39,109.01,26.39,108.97,26.39"/>
				<path class="st0" d="M111.31,26.45c-0.28-0.01-1.15-0.06-2.34-0.06c1.42,0,1.42,0,4.84,0.29c-0.08-0.02-0.09-0.02-0.35-0.05
					C113.22,26.6,112.46,26.52,111.31,26.45"/>
				<path class="st0" d="M115.42,26.99c-1.14-0.21-2.17-0.33-2.32-0.33c0.03,0.01,4.05,0.84,4.21,0.83
					c-0.02-0.03-0.02-0.03-0.1-0.06c0.01,0,0.02,0,0.03,0.01c-0.01,0-0.02-0.01-0.03-0.01C117,27.36,116.52,27.2,115.42,26.99"/>
				<path class="st0" d="M46.32,92.63c-0.07-1.15-0.2-2.37-0.34-2.5c-0.26,0.26,0,5.34,0.29,5.6c0.03-0.05,0.05-0.14,0.07-0.2
					c0,0.01,0,0.02,0,0.04c0.01-0.04,0.01-0.04,0.02-0.19C46.4,94.68,46.4,94.04,46.32,92.63"/>
				<path class="st0" d="M117.98,28c-0.7-0.24-1.94-0.58-2.02-0.51c0.04,0.08,0.95,0.52,2.21,0.99c0.34,0.13,1.14,0.4,1.23,0.28
					c0,0-0.01-0.01-0.01-0.02c0.01,0,0.02,0,0.02,0c-0.01-0.02-0.01-0.02-0.05-0.06C119.2,28.52,118.91,28.32,117.98,28"/>
				<path class="st0" d="M48,86.75c0-0.03,0.01-2.7-0.53-2.37c-0.31,0.19-0.62,1.42-0.66,2.63c-0.05,1.4,0.18,2.72,0.47,2.72
					c0.14,0,0.26-0.27,0.33-0.44c0,0.01,0,0.03,0.01,0.04c0,0,0.01,0,0.02-0.01C47.75,88.95,47.99,88.1,48,86.75"/>
				<path class="st0" d="M119.38,29.68c-0.45-0.28-1.79-0.95-2.11-0.78c-0.08,0.62,2.32,1.89,2.74,1.66
					c0.02-0.01,0.11-0.06,0.11-0.16C120.1,30.33,120.06,30.11,119.38,29.68"/>
				<path class="st0" d="M51.34,81.03c0.14-1.67-0.24-2.65-0.85-2.22c-1.13,0.79-1.24,4.71-0.44,4.9c0.16,0.04,0.26-0.06,0.46-0.24
					c0,0.01,0,0.02,0,0.03c0.01,0,0.02,0,0.03,0c0,0,0-0.01,0.01-0.01C50.77,83.12,51.23,82.37,51.34,81.03"/>
				<path class="st0" d="M118.99,31.85c-0.64-0.68-2.22-1.6-2.24-0.62c0,0.1,0.18,0.73,1.09,1.35c0.33,0.22,0.93,0.44,1.26,0.25
					c0.04,0.03,0.04,0.04,0.12-0.07C119.39,32.47,119.32,32.2,118.99,31.85"/>
				<path class="st0" d="M116.76,34.43c-0.5-0.91-1.97-1.75-2.35-0.62c-0.29,0.86,0.98,2.29,2.14,1.7c0.09-0.04,0.14-0.09,0.17-0.12
					C116.83,35.29,117.09,35.02,116.76,34.43"/>
				<path class="st0" d="M56.16,75.3c0.18-1.17-0.04-2.81-1.13-1.92c-0.36,0.29-1.61,1.8-1.12,3.81c0.03,0.01,0.08,0.05,0.12,0.26
					c0.02,0.15,0.37,0.32,0.37,0.32c0.03,0.01,0.3,0.12,0.54-0.14c0,0.01,0,0.02,0,0.03c0.01,0,0.02,0,0.03,0
					c0.02-0.02,0.09-0.08,0.2-0.2C55.54,77.06,55.97,76.59,56.16,75.3"/>
				<path class="st0" d="M62.29,69.7c0.17-0.92,0.01-2.82-1.37-1.79c-1.69,1.25-1.56,3.82-0.69,4.08c0.36,0.11,0.87-0.28,1.02-0.41
					C61.26,71.58,62.11,70.72,62.29,69.7"/>
				<path class="st0" d="M112.84,37.38c-0.37-1.29-1.93-1.54-2.56-0.41c-0.43,0.76,0.16,1.34,0.38,1.55c0.03-0.01,0.05,0,0.1,0.06
					c0.14,0.18,1.02,0.46,1.61,0.07c0.35-0.25,0.4-0.38,0.42-0.44C112.83,38.11,112.95,37.77,112.84,37.38"/>
				<path class="st0" d="M69.33,64.18c0.37-1.62-0.58-2.23-1.59-1.57c-0.21,0.14-1.11,0.93-1.29,2.01c-0.24,1.48,0.45,1.7,0.67,1.73
					c0.38,0.06,0.84-0.23,1.08-0.41C68.79,65.49,69.17,64.9,69.33,64.18"/>
				<path class="st0" d="M107.26,40.99c-0.09-1.48-1.63-1.66-2.55-0.66c-0.97,1.05-0.01,2.27,1.02,2.19
					c0.16-0.01,0.36-0.07,0.5-0.12c0.01,0.02,0.02,0.05,0.08,0.01C106.63,42.2,107.31,41.77,107.26,40.99"/>
				<path class="st0" d="M76.97,59.01c0.29-1.07-0.11-2.21-1.41-1.56c-1.4,0.71-2.42,3.05-0.83,3.45c0.3,0.08,0.64-0.02,1.12-0.34
					C76.07,60.41,76.72,59.94,76.97,59.01"/>
				<path class="st0" d="M100.47,45.09c0.13-1.03-0.8-2.18-2.22-1.14c-1.2,0.88-0.81,2.36-0.07,2.6c0.11,0.04,0.53,0.14,1.05-0.09
					c0.01,0.04,0.02,0.07,0.37-0.13C99.83,46.19,100.37,45.84,100.47,45.09"/>
				<path class="st0" d="M84.97,54.06c0.25-1.15-0.44-2.24-1.77-1.41c-0.31,0.2-1.06,0.78-1.28,1.99c0,0.01,0.06,0.93,0.71,1.11
					c0.38,0.1,0.95-0.09,1.35-0.32C84.21,55.28,84.79,54.9,84.97,54.06"/>
				<path class="st0" d="M92.91,49.4c0.18-1.01-0.59-2.23-2.06-1.19c-1.18,0.84-1.3,2.5-0.2,2.77c0.39,0.09,0.96-0.08,1.35-0.31
					C92.21,50.54,92.77,50.18,92.91,49.4"/>
				<path class="st0" d="M108.97,26.39c0.39,0,0.39,0,1.85,0.06c-0.04,0-0.22-0.02-0.26-0.02
					C110.05,26.41,109.56,26.39,108.97,26.39"/>
				<path class="st0" d="M111.88,26.6c-0.67-0.09-1.3-0.14-1.45-0.15c1.23,0.18,1.23,0.18,1.66,0.26c1.36,0.27,1.36,0.27,1.42,0.26
					c0-0.01,0-0.01,0-0.02c-0.01-0.01-0.06-0.03-0.12-0.05C113.25,26.86,112.78,26.73,111.88,26.6"/>
				<path class="st0" d="M46.09,83.76c0.14-1.56,0.22-2.23,0.25-2.49c-0.03,0.22-0.06,0.45-0.08,0.68
					c-0.11,0.96-0.25,2.28-0.25,2.52c-0.04,0.59-0.09,1.37-0.13,1.96l0-0.02C45.93,85.58,46.07,83.95,46.09,83.76"/>
				<path class="st0" d="M47.74,78.07c0-0.03,0.47-2.96,0.1-2.67c-0.33,0.27-1.19,3.72-1.04,5.37c0.11,0.08,0.16,0.12,0.38-0.45
					C47.3,79.98,47.59,78.96,47.74,78.07"/>
				<path class="st0" d="M113.89,27.39c-0.48-0.19-1.37-0.44-1.48-0.39c0,0.09,0.75,0.5,1.29,0.73c0.85,0.36,1.02,0.3,1.06,0.25
					c0-0.01,0.01-0.02,0.01-0.03c0.02,0,0.03-0.01,0.02-0.04C114.71,27.8,114.54,27.64,113.89,27.39"/>
				<path class="st0" d="M51.14,72.16c0.01-0.02,0.58-2.56-0.11-2.25c-0.97,0.44-2.17,4.71-1.43,5.08c0.17,0.09,0.39-0.2,0.55-0.4
					c0,0.01,0,0.02,0,0.03c0.01,0,0.02-0.01,0.03-0.01C50.38,74.26,50.83,73.45,51.14,72.16"/>
				<path class="st0" d="M114.2,28.76c-0.43-0.37-1.66-1.05-1.62-0.44c0.04,0.63,1.48,1.59,1.92,1.09c0.01-0.01,0.02-0.03,0.02-0.04
					C114.56,29.31,114.63,29.13,114.2,28.76"/>
				<path class="st0" d="M55.88,66.94c0.33-1.06,0.54-2.87-0.27-2.41c-0.18,0.1-1.08,0.69-1.66,2.52c-0.12,0.36-0.65,2.17,0.14,2.25
					c0.13,0.01,0.25-0.07,0.39-0.18c0,0.01,0,0.02,0,0.03c0.04,0,0.04,0,0.21-0.18C55.2,68.41,55.59,67.88,55.88,66.94"/>
				<path class="st0" d="M112.7,30.63c-0.21-0.42-0.7-0.8-1.02-0.88c-0.56-0.15-0.85,0.37-0.86,0.38c-0.3,0.69,0.67,1.67,1.42,1.43
					c0.03-0.01,0.08-0.03,0.11-0.05c0.02,0.03,0.03,0.03,0.15-0.06C112.81,31.19,112.87,30.96,112.7,30.63"/>
				<path class="st0" d="M61.97,61.4c0.39-1.04,0.53-2.4-0.41-2.05c-0.64,0.24-1.49,1.17-1.86,2.03c-0.34,0.78-0.35,1.41-0.35,1.53
					c0,0.56,0.05,0.58,0.36,0.73c0.27,0.13,0.46,0,0.71-0.15c0,0.01,0,0.02,0,0.03c0.03,0,0.04,0.01,0.21-0.13
					C61.38,62.72,61.68,62.17,61.97,61.4"/>
				<path class="st0" d="M109.43,32.96c-0.13-1.04-1.37-1.49-2.14-0.48c-0.42,0.55-0.14,1.74,1.03,1.64
					c0.14-0.01,0.22-0.05,0.32-0.1c0.02,0.03,0.02,0.04,0.21-0.07C109.33,33.62,109.46,33.22,109.43,32.96"/>
				<path class="st0" d="M68.83,56.37c0.43-1.1,0.38-2.38-0.69-1.9c-1.49,0.67-2.72,3.31-1.81,3.87c0.38,0.23,1.09-0.23,1.3-0.37
					C67.86,57.8,68.45,57.35,68.83,56.37"/>
				<path class="st0" d="M104.49,35.75c0.12-0.91-0.67-1.62-1.84-0.76c-0.98,0.72-1.13,1.92,0.07,2.12
					c0.27,0.04,0.43-0.01,0.64-0.09c0.01,0.04,0.02,0.05,0.22-0.07C103.92,36.75,104.39,36.47,104.49,35.75"/>
				<path class="st0" d="M76.33,51.49c0.29-0.73,0.43-2.23-0.97-1.58c-1.98,0.92-2.53,3.25-1.52,3.51c0.38,0.1,1.01-0.27,1.14-0.35
					C74.99,53.08,75.99,52.35,76.33,51.49"/>
				<path class="st0" d="M84.19,46.49c0.28-1.4-0.89-1.22-1.76-0.66c-0.67,0.43-1.21,1.08-1.36,1.64c-0.3,1.09,0.32,1.21,0.58,1.26
					c0.11,0.02,0.25,0.02,0.36-0.01c0.22-0.05,0.68-0.26,0.68-0.26C83.9,47.72,84.19,46.51,84.19,46.49"/>
				<path class="st0" d="M91.63,42.38c0.18-1.37-1.16-1.13-2.13-0.37c-0.54,0.43-0.9,0.97-0.95,1.45c-0.09,0.84,0.38,0.92,0.69,0.97
					c0.1,0.02,0.25,0.02,0.35-0.01c0.22-0.05,0.67-0.24,0.67-0.24C91.43,43.5,91.63,42.39,91.63,42.38"/>
				<path class="st0" d="M98.43,39.07c0.16-0.64-0.12-1.9-1.7-0.97c-1.51,0.89-1.23,2.29-0.42,2.45c0.4,0.08,0.97-0.21,1.08-0.27
					C97.41,40.28,98.27,39.73,98.43,39.07"/>
				<path class="st0" d="M49.33,69.2c0.37-1.12,0.65-2,0.76-2.45c-0.06,0.07-0.07,0.09-0.25,0.55c0,0.01,0,0.02-0.01,0.02
					c-0.23,0.63-0.84,2.3-0.84,2.38c-0.18,0.57-0.42,1.33-0.6,1.9c-0.09,0.31-0.11,0.37-0.15,0.55c0.01,0,0.02,0,0.03,0
					c0.03-0.06,0.04-0.09,0.1-0.23c0,0.01-0.01,0.02-0.01,0.03c0-0.01,0.01-0.02,0.01-0.03C48.71,71.01,48.94,70.4,49.33,69.2"/>
				<path class="st0" d="M109.86,26.44c-0.28-0.03-0.58-0.05-0.88-0.05c0.42,0,0.7,0.04,1.32,0.17c0.33,0.07,0.41,0.07,0.43,0.06
					c0-0.01,0-0.01-0.02-0.02c0,0,0.01,0,0.01,0c-0.01,0-0.01,0-0.03-0.01C110.46,26.52,110.11,26.47,109.86,26.44"/>
				<path class="st0" d="M52.61,63.95c0.01-0.03,1.11-2.76,0.6-2.48c-0.43,0.23-2.18,3.34-2.27,5.02c0.13,0.08,0.19,0.12,0.57-0.43
					C51.7,65.76,52.25,64.79,52.61,63.95"/>
				<path class="st0" d="M110.73,26.91c-0.01,0-0.91-0.44-0.85-0.2c0,0.01,0.08,0.3,0.63,0.57c0.3,0.15,0.53,0.12,0.58,0.03
					c0,0,0,0,0,0C111.11,27.22,111.09,27.1,110.73,26.91"/>
				<path class="st0" d="M57.36,58.74c0.16-0.33,0.93-1.96,0.59-2.35c-0.49,0.02-1.39,1.17-1.99,2.24
					c-0.72,1.29-0.94,2.37-0.66,2.48c0.21,0.08,0.7-0.39,0.8-0.48C56.31,60.41,56.8,59.9,57.36,58.74"/>
				<path class="st0" d="M109.97,27.98c-0.23-0.58-0.95-0.77-1.21-0.18c-0.11,0.25-0.04,0.49,0.22,0.7c0.13,0.11,0.36,0.2,0.72,0.07
					c0.07-0.03,0.12-0.06,0.14-0.08C109.92,28.44,110.1,28.29,109.97,27.98"/>
				<path class="st0" d="M63.39,53.62c0.6-1.08,0.86-2.11,0.25-1.96c-1.6,0.39-3.46,4-2.76,4.24c0.33,0.11,0.7-0.18,1.07-0.46
					C62.19,55.24,62.77,54.74,63.39,53.62"/>
				<path class="st0" d="M107.42,29.52c0.13-0.85-0.72-0.88-1.3-0.44c-0.67,0.51-0.55,1.3,0.04,1.36c0.08,0.01,0.28,0.02,0.5-0.1
					c0,0,0,0.01,0,0.01c0.01,0,0.01,0,0.03,0C106.91,30.22,107.35,29.97,107.42,29.52"/>
				<path class="st0" d="M70.13,49c0.83-1.36,0.61-1.87,0.06-1.77c-1.53,0.27-3.47,3.31-2.8,3.81c0.2,0.15,0.48,0.01,0.81-0.14
					c0,0.01-0.01,0.02-0.01,0.03c0.01,0,0.03,0,0.05-0.01C68.65,50.64,69.49,50.05,70.13,49"/>
				<path class="st0" d="M103.29,31.61c0.36-0.88-0.29-1.04-0.88-0.81c-0.22,0.08-0.92,0.48-1.16,0.95
					c-0.33,0.63-0.1,0.87,0.16,0.96c0.23,0.08,0.47,0,0.73-0.08c0,0,0,0.01,0,0.01c0.02,0,0.02,0,0.04,0
					C102.46,32.48,103.06,32.17,103.29,31.61"/>
				<path class="st0" d="M77.28,44.76c0.32-0.49,0.95-1.86,0.06-1.71c-0.48,0.08-1.56,0.69-2.23,1.51c-0.8,0.97-0.9,1.86-0.65,1.97
					c0.15,0.07,0.42,0.1,0.86-0.11c0,0.01,0,0.02-0.01,0.03c0.02,0.01,0.03,0.01,0.29-0.14C76.37,45.84,77.02,45.18,77.28,44.76"/>
				<path class="st0" d="M84.61,40.75c0.45-0.66,0.75-1.56-0.01-1.47c-1.05,0.12-3.19,1.74-2.86,2.95c0.47,0.21,0.53,0.23,1.05,0.01
					c0,0.01,0,0.02,0,0.02c0.02,0.01,0.03,0.01,0.23-0.09C83.87,41.7,84.23,41.31,84.61,40.75"/>
				<path class="st0" d="M91.58,37.26c0.43-0.65,0.62-1.47-0.3-1.26c-1.18,0.27-2.78,1.61-2.41,2.57c0.48,0.19,0.54,0.21,1.04,0.01
					c0,0,0,0.01,0,0.02c0.02,0,0.03,0.01,0.22-0.08C90.92,38.09,91.25,37.75,91.58,37.26"/>
				<path class="st0" d="M97.91,34.24c0.22-0.38,0.51-1.4-0.54-1.09c-1.84,0.53-2.3,2.15-1.76,2.31c0.16,0.05,0.43,0.07,0.81-0.07
					c0,0,0,0.01,0,0.02c0.02,0.01,0.03,0.01,0.25-0.09C97.29,34.98,97.75,34.52,97.91,34.24"/>
				<path class="st0" d="M108.97,26.39c0.02,0,0.03,0.01,0.07,0.02c0.1,0.03,0.12,0.03,0.13,0.02c0,0,0-0.01-0.01-0.01
					C109.1,26.39,109.01,26.39,108.97,26.39"/>
				<path class="st0" d="M55.93,55.9c0.13-0.21,1.26-2.05,1.31-2.32c-0.01,0-0.02,0-0.03,0c-0.58,0.47-3.12,4.5-3.09,4.91
					c0.09-0.05,0.1-0.06,0.2-0.2c0,0.01-0.01,0.02-0.01,0.03c0.03-0.04,0.03-0.04,0.12-0.16C54.87,57.57,55.1,57.24,55.93,55.9"/>
				<path class="st0" d="M60.55,51.25c0.62-0.86,1.33-1.95,1.28-2.26c-0.46-0.17-3.35,3.25-3.53,4.47c0.11,0.04,0.19,0.07,0.38-0.12
					c0,0.01-0.01,0.02-0.01,0.03c0.01,0,0.01,0,0.63-0.57C59.69,52.26,60.17,51.79,60.55,51.25"/>
				<path class="st0" d="M107.08,27.35c0.06-0.07,0.37-0.43,0.1-0.42c-0.22,0.01-0.8,0.22-1.11,0.45c-0.49,0.35-0.22,0.5-0.22,0.5
					c0.01,0,0.17,0.07,0.6-0.1C106.62,27.71,106.94,27.51,107.08,27.35"/>
				<path class="st0" d="M108.85,26.58c0-0.02,0.01-0.15-0.05-0.15c-0.14,0.02-0.4,0.11-0.5,0.21c-0.13,0.12-0.09,0.26,0.09,0.26
					c0.02,0,0.09,0,0.14-0.03l0,0c0,0,0.01,0,0.07-0.03C108.78,26.77,108.84,26.7,108.85,26.58"/>
				<path class="st0" d="M66.54,46.58c0.25-0.31,1.5-1.87,0.93-1.86c-0.99,0.03-4.13,3.56-3.58,4.02c0.09,0.08,0.23,0,0.43-0.11
					c0,0.01-0.01,0.02-0.01,0.03c0.03,0,0.03,0,0.27-0.18C65.13,48.07,65.61,47.72,66.54,46.58"/>
				<path class="st0" d="M73.01,42.56c0.33-0.36,1.09-1.26,1.06-1.72c-0.4-0.33-2.17,1.15-2.18,1.17c-1.19,1.03-1.72,1.88-1.72,2.23
					c0.01,0.41,0.71,0.05,1.13-0.2C71.57,43.87,72.19,43.47,73.01,42.56"/>
				<path class="st0" d="M99.15,30.35c0.14-0.13,0.82-0.78,0.35-0.79c-0.98-0.03-3.16,1.45-2.72,1.84c0.17,0.15,0.67-0.04,0.88-0.12
					c0,0,0,0.01-0.01,0.01c0.01,0,0.03,0,0.04,0C97.97,31.16,98.61,30.86,99.15,30.35"/>
				<path class="st0" d="M103.71,28.64c0.22-0.21,0.57-0.62,0.31-0.66c-0.43-0.07-2.39,0.91-2.13,1.35c0.12,0.2,0.71-0.01,0.89-0.08
					C102.94,29.17,103.31,29.01,103.71,28.64"/>
				<path class="st0" d="M80.05,38.71c0.73-0.73,1.03-1.38,0.65-1.39c-1.18-0.01-4.28,2.67-3.6,3.12c0.06,0.04,0.34,0.07,0.64-0.08
					c0,0.01-0.01,0.01-0.01,0.02c0.02,0,0.03,0,0.28-0.13C78.54,39.97,79.19,39.58,80.05,38.71"/>
				<path class="st0" d="M86.88,35.53c1.33-1.27,0.67-1.28,0.52-1.27c-1.08,0.08-3.9,2.17-3.33,2.72c0.49-0.02,0.49-0.02,0.68-0.09
					c0,0-0.01,0.01-0.01,0.02c0.02,0,0.02,0,0.17-0.06C85.33,36.63,86.13,36.24,86.88,35.53"/>
				<path class="st0" d="M93.34,32.74c0.48-0.44,0.96-0.98,0.55-1.07c-0.85-0.18-3.58,1.73-3.21,2.25c0.07,0.1,0.46,0.06,0.72-0.03
					c0,0-0.01,0.01-0.01,0.02c0.02,0,0.02,0,0.16-0.05C91.94,33.68,92.68,33.35,93.34,32.74"/>
				<path class="st0" d="M60.86,48.66c1.05-1.23,1.73-1.98,1.81-2.06c-0.02,0.02-0.04,0.05-0.06,0.07c-0.55,0.6-1.1,1.21-1.63,1.83
					c-0.47,0.56-1.09,1.31-1.55,1.88l-0.46,0.59c0.06-0.08,0.11-0.14,0.21-0.26C59.86,49.85,60.58,48.99,60.86,48.66"/>
				<path class="st0" d="M65.56,44.35c1.61-1.62,1.73-1.88,1.74-1.91c-0.54,0.08-4.43,3.9-4.24,4.17c0.07-0.01,0.1-0.04,0.3-0.2
					c-0.01,0.01-0.02,0.02-0.02,0.03c0.03-0.02,0.03-0.02,0.1-0.08C63.92,45.93,64.45,45.46,65.56,44.35"/>
				<path class="st0" d="M71.27,40.45c0.18-0.15,1.72-1.5,1.67-1.71c-0.73-0.03-4.7,3.21-4.47,3.64c0.03,0.07,0.24-0.02,0.41-0.13
					c-0.01,0.01-0.02,0.02-0.02,0.02c0.03-0.01,0.03-0.01,0.2-0.12C69.63,41.78,70.07,41.49,71.27,40.45"/>
				<path class="st0" d="M77.66,36.95c1.25-0.96,1.42-1.22,1.5-1.34c0-0.02-0.01-0.04-0.02-0.06c-0.75-0.05-4.28,2.24-4.52,3.09
					c0.01,0.01,0.03,0.03,0.05,0.05c0.13-0.01,0.27-0.01,0.83-0.3C75.8,38.22,76.5,37.84,77.66,36.95"/>
				<path class="st0" d="M105.86,26.87c0.29-0.09,0.38-0.12,0.68-0.2c0.18-0.05,0.18-0.05,0.2-0.06c-0.35-0.01-2.46,0.42-2.58,0.69
					c0.03,0.01,0.09,0.04,0.53-0.07C104.98,27.15,104.98,27.15,105.86,26.87"/>
				<path class="st0" d="M108.45,26.42c0.25-0.03,0.44-0.03,0.52-0.03c-1.01,0.01-1.52,0.16-1.56,0.19
					c0.01,0.01,0.03,0.02,0.17-0.01c0,0-0.01,0-0.01,0c0.01,0,0.01,0,0.08-0.01C108.29,26.44,108.29,26.44,108.45,26.42"/>
				<path class="st0" d="M84.32,33.9c0.71-0.48,1.14-0.84,1.28-1.06c-0.01-0.02-0.01-0.04-0.02-0.05c-0.74-0.14-4.01,1.77-4.38,2.56
					c0.01,0.02,0.02,0.05,0.03,0.07c0.14,0.02,0.18,0.02,0.53-0.09c-0.01,0-0.01,0.01-0.02,0.02c0.03,0,0.03,0,0.24-0.1
					C82.67,34.92,83.27,34.6,84.32,33.9"/>
				<path class="st0" d="M90.84,31.36c0.75-0.46,1.16-0.78,1.23-0.93c-0.01-0.01-0.02-0.02-0.02-0.03c-0.91-0.03-4.47,1.83-4.19,2.2
					c0.07,0.09,0.84-0.15,0.84-0.16C89.62,32.07,90.2,31.75,90.84,31.36"/>
				<path class="st0" d="M96.83,29.32c0.99-0.53,1.07-0.66,1.09-0.7c-0.01-0.01-0.01-0.01-0.02-0.02c-0.87-0.03-4.04,1.4-3.78,1.7
					c0.06,0.07,0.77-0.12,0.78-0.12C95.71,29.9,96.22,29.65,96.83,29.32"/>
				<path class="st0" d="M101.77,27.9c1.03-0.45,1.09-0.51,1.13-0.54c0-0.01,0-0.02-0.01-0.02c-0.34-0.04-3.22,0.77-3.26,1.21
					c0.15,0.01,0.23,0.02,0.42-0.04c0,0-0.01,0-0.01,0.01c0.01,0,0.01,0,0.61-0.18C101.01,28.18,101.4,28.06,101.77,27.9"/>
				<path class="st0" d="M71.96,38.46c0.72-0.53,1.49-1,2.17-1.59c-0.03,0.01-0.12,0.06-0.67,0.44c-0.53,0.37-1.23,0.86-1.74,1.23
					c-0.55,0.41-1.29,0.97-1.83,1.39c-0.47,0.38-0.69,0.55-0.75,0.62c0.06-0.04,0.08-0.05,0.43-0.31c-0.01,0-0.02,0.01-0.03,0.02
					c0,0,0.01-0.01,0.01-0.01C70.19,39.77,71.95,38.47,71.96,38.46"/>
				<path class="st0" d="M77.46,35.3c1.99-1.24,2.03-1.28,2.17-1.4c-0.37-0.1-4.9,2.62-5.15,3.09c0.06,0,0.13-0.01,0.66-0.3
					C75.59,36.44,76.08,36.16,77.46,35.3"/>
				<path class="st0" d="M83.52,32.59c2.14-1.12,2.15-1.19,2.15-1.24c-0.3,0-4.18,1.62-5.23,2.6c0.12,0.01,0.17,0.02,0.42-0.09
					c-0.01,0-0.02,0.01-0.03,0.02c0.05-0.02,0.05-0.02,0.25-0.11C81.72,33.5,82.18,33.3,83.52,32.59"/>
				<path class="st0" d="M89.97,30.26c0.53-0.23,1.77-0.76,1.93-0.89c-0.22-0.12-4.16,1.26-5.08,2c0.06,0.06,0.08,0.07,0.5-0.06
					c-0.01,0-0.02,0.01-0.02,0.01c0.03,0,0.03,0,0.13-0.04C88.21,31,88.78,30.77,89.97,30.26"/>
				<path class="st0" d="M96.1,28.49c1.77-0.6,1.77-0.6,1.84-0.65c-0.46-0.03-4.04,0.93-4.77,1.49c0,0.01,0,0.02,0,0.03
					c0.1,0,0.2,0,0.77-0.16C94.54,29.02,94.99,28.87,96.1,28.49"/>
				<path class="st0" d="M101.58,27.26c0.57-0.14,1.16-0.22,1.73-0.4c-0.35-0.02-3.56,0.55-4.33,0.96c0.08,0.02,0.11,0.03,0.67-0.1
					C100.29,27.59,100.94,27.42,101.58,27.26"/>
				<path class="st0" d="M106.1,26.57c0.66-0.08,1.14-0.12,1.67-0.15c-1.64,0.05-3.51,0.33-3.82,0.45c0.04,0.01,0.06,0.01,0.36-0.04
					C105.16,26.7,105.59,26.64,106.1,26.57"/>
				<path class="st0" d="M108.97,26.39c-0.28,0-0.65,0-1.05,0.03c0.01,0,0.01,0,0.14,0c0,0-0.01,0-0.02,0c0.04,0,0.08,0,0.12-0.01
					C108.51,26.4,108.73,26.39,108.97,26.39"/>
				<path class="st0" d="M84.85,31.26c0.91-0.39,1.85-0.72,2.76-1.13c-0.73,0.18-4.66,1.76-5.85,2.45c0.12-0.03,0.12-0.03,0.52-0.21
					C82.31,32.36,84.43,31.44,84.85,31.26"/>
				<path class="st0" d="M90.83,29.26c0.98-0.32,1.52-0.48,1.9-0.6c0.67-0.21,0.71-0.22,0.77-0.25c-0.7,0.09-4.93,1.33-5.89,1.89
					c0.11-0.02,0.18-0.03,0.44-0.11C88.97,29.88,89.9,29.57,90.83,29.26"/>
				<path class="st0" d="M96.98,27.76c0.81-0.19,1.63-0.34,2.44-0.53c-1.23,0.11-5.29,1.04-5.65,1.29c0.08,0,0.14-0.01,0.69-0.14
					C95.3,28.17,96.14,27.96,96.98,27.76"/>
				<path class="st0" d="M102.76,26.81c0.93-0.13,1.41-0.17,2.36-0.27c-1.78,0.09-4.98,0.56-5.36,0.72c0.07,0,0.12-0.01,0.64-0.09
					C101.51,27,102.01,26.91,102.76,26.81"/>
				<path class="st0" d="M107.83,26.41c0.5-0.01,0.93-0.02,1.14-0.02c-2.35,0-3.78,0.18-3.8,0.18c0.04,0,0.04,0,0.53-0.04
					C106.12,26.5,106.89,26.44,107.83,26.41"/>
				<path class="st0" d="M93.22,28.37c1.01-0.26,2.02-0.49,3-0.7c-0.68,0.15-1.59,0.35-2.27,0.51c-0.73,0.19-1.7,0.44-2.43,0.65
					c-0.48,0.14-1.12,0.33-1.6,0.48c0.07-0.02,0.16-0.05,0.23-0.07c-0.01,0-0.02,0.01-0.03,0.01c0.05-0.01,0.09-0.03,0.14-0.04
					C90.68,29.08,91.78,28.74,93.22,28.37"/>
				<path class="st0" d="M99.01,27.2c0.98-0.16,1.02-0.17,3.02-0.43c-1.9,0.17-5.2,0.74-6.39,1.05c0.04,0,0.05,0,0.44-0.08
					c-0.01,0-0.02,0-0.03,0.01c0,0,0.01,0,0.01,0C96.6,27.64,97.7,27.42,99.01,27.2"/>
				<path class="st0" d="M104.91,26.54c1.47-0.1,2.57-0.12,2.98-0.13c-3.68,0.07-6.26,0.44-6.29,0.45c0.12-0.01,0.12-0.01,0.48-0.05
					C103.15,26.68,104.02,26.6,104.91,26.54"/>
				<path class="st0" d="M108.97,26.39c-1.05,0-1.59,0.02-1.59,0.02c0.08,0,0.15,0,0.23-0.01c-0.01,0-0.03,0-0.04,0
					c0.07,0,0.15,0,0.22-0.01C108.3,26.39,108.58,26.39,108.97,26.39"/>
				<path class="st0" d="M108.04,26.4c0.28,0,0.65,0,0.93-0.01c-0.77,0.01-1.78,0.03-2.55,0.05l-0.91,0.04
					c-0.38,0.02-0.68,0.04-1.22,0.08c0.16-0.01,0.31-0.02,0.47-0.03C105.89,26.46,106.96,26.41,108.04,26.4"/>
			</g>
		</g>
		<g>
			<g>
				<path class="st1" d="M124.46,102.69c-2.62,0.24-7.01,2.12-8.09,5.58c-1.25,4.01,1.94,10.16,7.09,10.87
					c4.51,0.63,7.8-3.28,8-3.53c6.44,9.85-9.82,26.54-26.01,22.9c-9.61-2.16-15.56-11.66-15.93-12.35
					c-0.64-1.19-4.01-7.66-2.69-15.82c2.48-15.23,18.93-21.41,19.62-21.66c-4.73-1.6-18.07-6.82-22.95-19.57
					c-1.04-2.72-1.34-4.86-1.64-6.91c-0.63-4.44-0.45-8.69,0.17-12.64l-45.18,78.1c-3.28,5.67,0.81,12.76,7.36,12.77l107.8,0.09
					C147.3,128.3,135.82,101.64,124.46,102.69"/>
				<path class="st1" d="M181.1,127.8L116.44,15.6c-3.27-5.67-11.46-5.68-14.74-0.01l-8.32,14.39c0.58,7.44,2.66,17.29,9.53,25.48
					c14.13,16.86,35.93,3.88,48.35,23.84c15.53,24.94,7.39,51.77,3.66,61.24l18.8,0.01C180.27,140.56,184.37,133.47,181.1,127.8"/>
			</g>
		</g>
	</g>
	<g>
		<g>
			<g>
				<path class="st2" d="M8.1,195.28v-0.57l1.04-0.3c0.32-0.1,0.56-0.33,0.71-0.71l4.79-12.51l1.46-2.77h0.47l5.91,15.28
					c0.06,0.16,0.16,0.31,0.28,0.44c0.12,0.13,0.27,0.22,0.43,0.27l1.04,0.3v0.57h-5.87v-0.57l2.1-0.4l-4.35-11.21l-0.6-1.63h-0.01
					l-4.74,12.79l2.05,0.45v0.57H8.1z M12.42,189.1l0.37-0.92h5.45l0.37,0.92H12.42z"/>
				<path class="st2" d="M24.73,194.59l-0.29-4.28h0.64l0.95,2.4c0.04,0.1,0.12,0.21,0.24,0.34c0.12,0.13,0.22,0.22,0.31,0.28
					c0.39,0.24,0.81,0.46,1.27,0.65c0.46,0.19,0.91,0.33,1.34,0.44c0.43,0.1,0.8,0.16,1.11,0.16c1.02,0,1.83-0.28,2.44-0.85
					c0.61-0.57,0.91-1.37,0.91-2.42c0-0.74-0.2-1.34-0.6-1.81s-0.94-0.85-1.63-1.14c-0.6-0.26-1.21-0.45-1.81-0.57
					c-0.6-0.12-1.2-0.31-1.8-0.55c-0.9-0.36-1.6-0.88-2.09-1.56c-0.49-0.67-0.74-1.49-0.74-2.46c0-0.92,0.23-1.75,0.69-2.49
					c0.46-0.74,1.08-1.33,1.88-1.77c0.8-0.44,1.69-0.66,2.69-0.66c0.55,0,1.09,0.04,1.62,0.12c0.53,0.08,1.04,0.17,1.53,0.29
					c0.49,0.12,0.97,0.26,1.42,0.41v3.92h-0.64l-0.83-2.23c-0.04-0.12-0.11-0.23-0.22-0.33c-0.11-0.1-0.21-0.18-0.3-0.24
					c-0.25-0.19-0.55-0.35-0.92-0.48c-0.36-0.12-0.72-0.22-1.08-0.28s-0.67-0.1-0.92-0.1c-0.94,0-1.68,0.25-2.22,0.75
					c-0.54,0.5-0.81,1.14-0.81,1.92c0,0.67,0.15,1.3,0.45,1.89s0.9,1.05,1.8,1.38c0.59,0.21,1.16,0.38,1.72,0.52
					s1.17,0.34,1.83,0.61c0.5,0.2,0.97,0.46,1.43,0.78c0.45,0.32,0.83,0.74,1.12,1.25c0.29,0.51,0.44,1.17,0.44,1.96
					c0,0.84-0.21,1.67-0.63,2.47c-0.42,0.8-1.07,1.46-1.97,1.97c-0.9,0.51-2.06,0.77-3.5,0.77c-0.47,0-0.97-0.05-1.51-0.15
					c-0.54-0.1-1.09-0.23-1.65-0.4S25.29,194.77,24.73,194.59z"/>
				<path class="st2" d="M40.4,195.28v-0.57l1.77-0.33c0.16-0.03,0.3-0.12,0.4-0.25c0.11-0.13,0.16-0.29,0.16-0.46v-14.1H38.9
					c-0.16,0-0.28,0.04-0.35,0.12c-0.07,0.08-0.13,0.18-0.17,0.3l-0.87,2.66h-0.64v-3.99h13.95v3.99h-0.64l-0.87-2.66
					c-0.04-0.12-0.09-0.22-0.16-0.3s-0.18-0.12-0.33-0.12h-3.91v14.1c0,0.19,0.06,0.34,0.17,0.47c0.11,0.13,0.25,0.21,0.41,0.24
					l1.77,0.33v0.57H40.4z"/>
				<path class="st2" d="M49,195.28v-0.57l1.04-0.3c0.32-0.1,0.56-0.33,0.71-0.71l4.79-12.51l1.46-2.77h0.47l5.91,15.28
					c0.06,0.16,0.16,0.31,0.28,0.44c0.12,0.13,0.27,0.22,0.43,0.27l1.04,0.3v0.57h-5.87v-0.57l2.1-0.4L57,183.1l-0.6-1.63h-0.01
					l-4.74,12.79l2.05,0.45v0.57H49z M53.33,189.1l0.37-0.92h5.45l0.37,0.92H53.33z"/>
				<path class="st2" d="M65.02,195.28v-0.57l1.53-0.4c0.16-0.04,0.3-0.13,0.4-0.26c0.11-0.13,0.16-0.28,0.16-0.45v-13.28
					c0-0.18-0.05-0.34-0.16-0.47c-0.11-0.13-0.24-0.21-0.4-0.24l-1.65-0.37v-0.57h4.05l7.97,11.45l1.13,1.65v-11.43
					c0-0.19-0.05-0.34-0.16-0.46c-0.11-0.12-0.24-0.21-0.4-0.25l-1.53-0.4v-0.57h5.24v0.57l-1.53,0.4c-0.16,0.04-0.3,0.12-0.41,0.25
					c-0.11,0.13-0.17,0.28-0.17,0.46v12.17l-0.36,2.88h-0.68L69.42,183l-1.27-1.84v12.44c0,0.19,0.05,0.34,0.16,0.46
					c0.11,0.12,0.24,0.21,0.4,0.25l1.53,0.4v0.57H65.02z"/>
				<path class="st2" d="M80.47,195.28v-0.57l1.04-0.3c0.32-0.1,0.56-0.33,0.71-0.71l4.79-12.51l1.46-2.77h0.47l5.91,15.28
					c0.06,0.16,0.16,0.31,0.28,0.44c0.12,0.13,0.27,0.22,0.43,0.27l1.04,0.3v0.57h-5.87v-0.57l2.1-0.4l-4.35-11.21l-0.6-1.63h-0.01
					l-4.74,12.79l2.05,0.45v0.57H80.47z M84.8,189.1l0.37-0.92h5.45L91,189.1H84.8z"/>
				<path class="st2" d="M102.67,195.28v-0.57l1.53-0.4c0.16-0.04,0.3-0.13,0.4-0.26c0.11-0.13,0.16-0.28,0.16-0.45v-13.33
					c0-0.19-0.05-0.34-0.16-0.48c-0.11-0.13-0.24-0.21-0.4-0.25l-1.53-0.31v-0.57h4.94l3.87,10.72l0.84,2.46l4.76-13.17h4.89v0.57
					l-1.53,0.31c-0.16,0.03-0.29,0.12-0.4,0.25s-0.16,0.29-0.16,0.47v13.4c0,0.19,0.05,0.34,0.16,0.46c0.11,0.12,0.24,0.21,0.4,0.25
					l1.53,0.33v0.57h-6.38v-0.57l1.53-0.33c0.16-0.04,0.29-0.12,0.4-0.25c0.11-0.13,0.16-0.28,0.16-0.46v-13.85l-0.64,1.83
					l-3.93,10.86l-1.25,2.76h-0.49l-4.92-13.6l-0.66-1.88v13.8c0,0.19,0.05,0.34,0.16,0.46c0.11,0.12,0.24,0.21,0.4,0.25l1.53,0.4
					v0.57H102.67z"/>
				<path class="st2" d="M123.11,195.28v-0.57l1.53-0.33c0.16-0.04,0.29-0.12,0.4-0.25c0.11-0.13,0.16-0.28,0.16-0.46v-13.4
					c0-0.19-0.05-0.34-0.16-0.48s-0.24-0.21-0.4-0.25l-1.53-0.31v-0.57h12.1v3.89h-0.67l-0.86-2.57c-0.04-0.12-0.1-0.22-0.17-0.3
					s-0.18-0.12-0.33-0.12h-5.81v6.59h3.81c0.16,0,0.28-0.04,0.35-0.11s0.13-0.16,0.17-0.28l0.69-1.98h0.59v5.65h-0.59l-0.69-1.95
					c-0.04-0.13-0.1-0.23-0.17-0.31s-0.19-0.11-0.35-0.11h-3.81v7.28h6.85c0.14,0,0.25-0.04,0.33-0.11s0.13-0.18,0.16-0.31
					l0.81-2.91h0.67v4.24H123.11z"/>
				<path class="st2" d="M137.43,195.28v-0.57l1.53-0.33c0.16-0.04,0.29-0.12,0.4-0.25c0.11-0.13,0.16-0.28,0.16-0.46v-13.4
					c0-0.19-0.05-0.34-0.16-0.48s-0.24-0.21-0.4-0.25l-1.53-0.31v-0.57h6.88c0.64,0,1.34,0.08,2.09,0.24
					c0.75,0.16,1.48,0.42,2.21,0.79c0.73,0.37,1.39,0.87,1.99,1.51s1.08,1.44,1.43,2.39c0.36,0.96,0.54,2.1,0.54,3.44
					c0,1.89-0.38,3.44-1.13,4.65c-0.75,1.21-1.76,2.12-3.01,2.71s-2.65,0.89-4.16,0.89H137.43z M141.7,179.54v14.84h2.77
					c1.92,0,3.35-0.61,4.29-1.84s1.41-2.94,1.41-5.14c0-1.62-0.27-3.01-0.81-4.19c-0.54-1.18-1.29-2.08-2.25-2.72
					c-0.96-0.63-2.09-0.95-3.36-0.95H141.7z"/>
				<path class="st2" d="M153.89,195.28v-0.57l1.53-0.33c0.16-0.04,0.29-0.12,0.4-0.25c0.11-0.13,0.16-0.28,0.16-0.46v-13.4
					c0-0.19-0.05-0.34-0.16-0.48s-0.24-0.21-0.4-0.25l-1.53-0.31v-0.57h6.36v0.57l-1.52,0.31c-0.16,0.03-0.3,0.12-0.41,0.25
					c-0.11,0.14-0.17,0.29-0.17,0.47v13.4c0,0.19,0.05,0.34,0.16,0.46c0.11,0.12,0.25,0.21,0.42,0.25l1.52,0.33v0.57H153.89z"/>
				<path class="st2" d="M175.25,192.03h0.22v1.01c-0.43,0.37-0.96,0.76-1.58,1.16c-0.62,0.4-1.3,0.74-2.04,1.01
					c-0.74,0.27-1.51,0.41-2.31,0.41c-1.62,0-3.02-0.35-4.21-1.04c-1.19-0.69-2.11-1.69-2.76-2.98c-0.65-1.29-0.98-2.82-0.98-4.6
					c0-1.72,0.35-3.23,1.05-4.54c0.7-1.31,1.65-2.32,2.86-3.06c1.21-0.73,2.56-1.1,4.06-1.1c0.53,0,1.12,0.05,1.77,0.14
					c0.65,0.1,1.28,0.21,1.89,0.36c0.61,0.14,1.13,0.29,1.56,0.44v3.84h-0.64l-0.82-2.24c-0.03-0.08-0.09-0.15-0.16-0.22
					s-0.18-0.14-0.32-0.22c-0.49-0.28-1.11-0.53-1.84-0.74s-1.44-0.31-2.1-0.31c-1.43,0-2.61,0.6-3.53,1.81
					c-0.92,1.21-1.38,3.01-1.38,5.42c0,2.52,0.53,4.4,1.6,5.67c1.07,1.26,2.6,1.89,4.59,1.89c0.88,0,1.63-0.12,2.27-0.36
					c0.63-0.24,1.18-0.52,1.63-0.85C174.53,192.63,174.92,192.32,175.25,192.03z"/>
				<path class="st2" d="M175.13,195.28v-0.57l1.04-0.3c0.32-0.1,0.56-0.33,0.71-0.71l4.79-12.51l1.46-2.77h0.47l5.91,15.28
					c0.06,0.16,0.16,0.31,0.28,0.44c0.12,0.13,0.27,0.22,0.43,0.27l1.04,0.3v0.57h-5.87v-0.57l2.1-0.4l-4.35-11.21l-0.6-1.63h-0.01
					l-4.74,12.79l2.05,0.45v0.57H175.13z M179.46,189.1l0.37-0.92h5.45l0.37,0.92H179.46z"/>
				<path class="st2" d="M191.15,195.28v-0.57l1.53-0.33c0.16-0.04,0.29-0.12,0.4-0.25c0.11-0.13,0.16-0.28,0.16-0.46v-13.4
					c0-0.19-0.05-0.34-0.16-0.48s-0.24-0.21-0.4-0.25l-1.53-0.31v-0.57h6.45v0.57l-1.6,0.31c-0.16,0.03-0.3,0.12-0.41,0.25
					c-0.11,0.14-0.17,0.29-0.17,0.47v14.09h6.1c0.17,0,0.29-0.08,0.36-0.24c0.07-0.16,0.12-0.29,0.16-0.4l0.92-3.18h0.64v4.74
					H191.15z"/>
			</g>
		</g>
		<g>
			<g>
				<path class="st2" d="M46.92,223.64c-1.33,0-2.44-0.23-3.34-0.69c-0.9-0.46-1.58-1.06-2.04-1.81c-0.46-0.74-0.69-1.53-0.69-2.37
					v-10.51c0-0.19-0.06-0.34-0.17-0.48c-0.11-0.13-0.25-0.21-0.41-0.25l-1.53-0.31v-0.57h6.38v0.57l-1.53,0.31
					c-0.16,0.03-0.29,0.12-0.4,0.25c-0.11,0.14-0.16,0.29-0.16,0.47v9.85c0,0.43,0.06,0.89,0.17,1.38c0.11,0.49,0.32,0.96,0.62,1.41
					c0.3,0.45,0.73,0.81,1.3,1.1s1.3,0.43,2.21,0.43c0.92,0,1.67-0.14,2.26-0.43c0.59-0.29,1.05-0.66,1.39-1.1
					c0.34-0.45,0.57-0.91,0.71-1.4s0.21-0.94,0.21-1.35v-9.8c0-0.19-0.05-0.34-0.16-0.46c-0.11-0.12-0.24-0.21-0.4-0.25l-1.53-0.4
					v-0.57h5.23v0.57l-1.53,0.4c-0.16,0.04-0.3,0.12-0.4,0.25c-0.11,0.13-0.16,0.28-0.16,0.46v9.94c0,0.97-0.2,1.8-0.59,2.48
					c-0.39,0.68-0.9,1.24-1.52,1.66c-0.62,0.42-1.27,0.73-1.96,0.93C48.15,223.54,47.51,223.64,46.92,223.64z"/>
				<path class="st2" d="M55.8,223.27v-0.57l1.53-0.4c0.16-0.04,0.3-0.13,0.4-0.26c0.11-0.13,0.16-0.28,0.16-0.45v-13.28
					c0-0.18-0.05-0.34-0.16-0.47c-0.11-0.13-0.24-0.21-0.4-0.24l-1.65-0.37v-0.57h4.05l7.97,11.45l1.13,1.65v-11.43
					c0-0.19-0.05-0.34-0.16-0.46c-0.11-0.12-0.24-0.21-0.4-0.25l-1.53-0.4v-0.57h5.24v0.57l-1.53,0.4c-0.16,0.04-0.3,0.12-0.41,0.25
					c-0.11,0.13-0.17,0.28-0.17,0.46v12.17l-0.36,2.88h-0.68L60.2,211l-1.27-1.84v12.44c0,0.19,0.05,0.34,0.16,0.46
					c0.11,0.12,0.24,0.21,0.4,0.25l1.53,0.4v0.57H55.8z"/>
				<path class="st2" d="M72.86,223.27v-0.57l1.53-0.33c0.16-0.04,0.3-0.12,0.4-0.25c0.11-0.13,0.16-0.28,0.16-0.46v-13.4
					c0-0.19-0.05-0.34-0.16-0.48c-0.11-0.13-0.24-0.21-0.4-0.25l-1.53-0.31v-0.57h6.36v0.57l-1.52,0.31
					c-0.16,0.03-0.3,0.12-0.41,0.25c-0.11,0.14-0.17,0.29-0.17,0.47v13.4c0,0.19,0.05,0.34,0.16,0.46c0.11,0.12,0.25,0.21,0.42,0.25
					l1.52,0.33v0.57H72.86z"/>
				<path class="st2" d="M86.93,223.51l-5.95-15.27c-0.06-0.15-0.16-0.3-0.28-0.45c-0.12-0.14-0.27-0.24-0.43-0.28l-1.11-0.29v-0.57
					h5.92v0.57l-2.07,0.4l4.35,11.2l0.61,1.66l4.74-12.81l-2.05-0.45v-0.57h4.69v0.57l-1.04,0.29c-0.16,0.04-0.3,0.13-0.43,0.28
					s-0.22,0.29-0.28,0.45l-4.82,12.54l-1.37,2.74H86.93z"/>
				<path class="st2" d="M95.35,223.27v-0.57l1.53-0.33c0.16-0.04,0.3-0.12,0.4-0.25c0.11-0.13,0.16-0.28,0.16-0.46v-13.4
					c0-0.19-0.05-0.34-0.16-0.48c-0.11-0.13-0.24-0.21-0.4-0.25l-1.53-0.31v-0.57h12.1v3.89h-0.68l-0.86-2.57
					c-0.04-0.12-0.1-0.22-0.17-0.3s-0.18-0.12-0.33-0.12h-5.81v6.59h3.81c0.16,0,0.28-0.04,0.35-0.11s0.13-0.16,0.17-0.28l0.69-1.98
					h0.59v5.65h-0.59l-0.69-1.95c-0.04-0.13-0.1-0.23-0.17-0.31s-0.19-0.11-0.35-0.11h-3.81v7.28h6.85c0.15,0,0.26-0.04,0.33-0.11
					s0.13-0.18,0.16-0.31l0.81-2.91h0.68v4.24H95.35z"/>
				<path class="st2" d="M109.67,223.27v-0.57l1.53-0.33c0.16-0.04,0.3-0.12,0.4-0.25c0.11-0.13,0.16-0.28,0.16-0.46v-13.4
					c0-0.19-0.05-0.34-0.16-0.48s-0.24-0.21-0.4-0.25l-1.53-0.31v-0.57h6.1c1.23,0,2.24,0.12,3.03,0.36
					c0.79,0.24,1.4,0.56,1.84,0.96c0.44,0.4,0.74,0.84,0.91,1.33c0.17,0.49,0.25,0.98,0.25,1.48c0,0.91-0.21,1.69-0.62,2.33
					c-0.41,0.65-0.92,1.16-1.53,1.54c-0.6,0.38-1.18,0.63-1.74,0.75l-1.82,0.49l-2.34-0.45l0.1-0.74c0.07,0.03,0.23,0.06,0.48,0.08
					s0.51,0.04,0.8,0.05c0.28,0.01,0.5,0.02,0.66,0.02c0.83,0,1.53-0.17,2.07-0.52c0.55-0.34,0.95-0.8,1.22-1.36
					c0.27-0.56,0.4-1.16,0.4-1.8c0-1.29-0.34-2.22-1.03-2.8c-0.69-0.58-1.66-0.87-2.91-0.87h-1.62v14.13c0,0.19,0.04,0.34,0.13,0.47
					c0.09,0.13,0.22,0.21,0.39,0.24l1.78,0.33v0.57H109.67z M125.22,223.27h-2.54c-0.48,0-0.86-0.05-1.13-0.16s-0.51-0.27-0.71-0.49
					c-0.2-0.22-0.42-0.51-0.68-0.86l-4.38-6.04l2.15-0.48l4.68,6.17c0.15,0.2,0.35,0.4,0.6,0.61c0.25,0.21,0.47,0.33,0.67,0.38
					l1.35,0.3V223.27z"/>
				<path class="st2" d="M125.54,222.58l-0.29-4.28h0.64l0.95,2.4c0.04,0.1,0.12,0.21,0.23,0.34c0.12,0.13,0.22,0.22,0.31,0.28
					c0.39,0.24,0.81,0.46,1.27,0.65s0.91,0.33,1.34,0.44c0.43,0.1,0.8,0.16,1.11,0.16c1.02,0,1.83-0.28,2.44-0.85
					c0.61-0.57,0.91-1.37,0.91-2.42c0-0.74-0.2-1.34-0.6-1.81c-0.4-0.47-0.95-0.85-1.63-1.14c-0.6-0.26-1.21-0.45-1.81-0.57
					c-0.6-0.12-1.2-0.31-1.8-0.55c-0.9-0.36-1.6-0.88-2.09-1.56c-0.49-0.67-0.74-1.49-0.74-2.46c0-0.92,0.23-1.75,0.69-2.49
					c0.46-0.74,1.08-1.33,1.88-1.77c0.8-0.44,1.69-0.66,2.69-0.66c0.55,0,1.09,0.04,1.62,0.12c0.53,0.08,1.04,0.17,1.53,0.29
					s0.97,0.26,1.42,0.41v3.92h-0.64l-0.83-2.23c-0.04-0.12-0.12-0.23-0.22-0.33c-0.11-0.1-0.21-0.18-0.29-0.24
					c-0.25-0.19-0.55-0.35-0.92-0.48c-0.36-0.12-0.72-0.22-1.08-0.28s-0.67-0.1-0.92-0.1c-0.94,0-1.68,0.25-2.22,0.75
					c-0.54,0.5-0.81,1.14-0.81,1.92c0,0.67,0.15,1.3,0.45,1.89c0.3,0.59,0.9,1.05,1.8,1.38c0.59,0.21,1.16,0.38,1.72,0.52
					s1.17,0.34,1.83,0.61c0.5,0.2,0.97,0.46,1.43,0.78s0.83,0.74,1.12,1.25c0.29,0.51,0.44,1.17,0.44,1.96
					c0,0.84-0.21,1.67-0.63,2.47c-0.42,0.8-1.07,1.46-1.97,1.97c-0.9,0.51-2.06,0.77-3.5,0.77c-0.47,0-0.97-0.05-1.51-0.15
					c-0.54-0.1-1.09-0.23-1.65-0.4S126.11,222.76,125.54,222.58z"/>
				<path class="st2" d="M137.93,223.27v-0.57l1.53-0.33c0.16-0.04,0.29-0.12,0.4-0.25c0.11-0.13,0.16-0.28,0.16-0.46v-13.4
					c0-0.19-0.05-0.34-0.16-0.48s-0.24-0.21-0.4-0.25l-1.53-0.31v-0.57h6.36v0.57l-1.52,0.31c-0.16,0.03-0.3,0.12-0.41,0.25
					c-0.11,0.14-0.17,0.29-0.17,0.47v13.4c0,0.19,0.05,0.34,0.16,0.46c0.11,0.12,0.25,0.21,0.42,0.25l1.52,0.33v0.57H137.93z"/>
				<path class="st2" d="M148.83,223.27v-0.57l1.77-0.33c0.16-0.03,0.29-0.12,0.4-0.25c0.11-0.13,0.16-0.29,0.16-0.46v-14.1h-3.84
					c-0.16,0-0.28,0.04-0.35,0.12s-0.13,0.18-0.17,0.3l-0.87,2.66h-0.64v-3.99h13.95v3.99h-0.64l-0.87-2.66
					c-0.04-0.12-0.09-0.22-0.16-0.3c-0.07-0.08-0.18-0.12-0.33-0.12h-3.91v14.1c0,0.19,0.06,0.34,0.17,0.47
					c0.11,0.13,0.25,0.21,0.41,0.24l1.77,0.33v0.57H148.83z"/>
				<path class="st2" d="M163.55,223.27v-0.57l1.77-0.33c0.16-0.03,0.29-0.12,0.4-0.25c0.11-0.13,0.16-0.29,0.16-0.46v-5.11
					l-4.62-8.32c-0.09-0.15-0.19-0.3-0.31-0.45c-0.12-0.14-0.26-0.24-0.42-0.28l-1.11-0.29v-0.57h5.92v0.57l-2.07,0.4l3.56,6.34
					l0.82,1.46l0.04-0.06l4.23-7.69l-1.98-0.45v-0.57h4.59v0.57l-1.04,0.29c-0.16,0.05-0.3,0.14-0.43,0.28
					c-0.12,0.14-0.23,0.29-0.32,0.44l-4.69,8.22v5.21c0,0.19,0.05,0.34,0.16,0.47c0.11,0.13,0.24,0.21,0.4,0.24l1.78,0.33v0.57
					H163.55z"/>
			</g>
		</g>
	</g>
</g>
</svg>
